<?xml version="1.0" encoding="UTF-8" standalone="no"?>
<!-- Created with Inkscape (http://www.inkscape.org/) -->

<svg
   xmlns:dc="http://purl.org/dc/elements/1.1/"
   xmlns:cc="http://creativecommons.org/ns#"
   xmlns:rdf="http://www.w3.org/1999/02/22-rdf-syntax-ns#"
   xmlns:svg="http://www.w3.org/2000/svg"
   xmlns="http://www.w3.org/2000/svg"
   xmlns:xlink="http://www.w3.org/1999/xlink"
   xmlns:sodipodi="http://sodipodi.sourceforge.net/DTD/sodipodi-0.dtd"
   xmlns:inkscape="http://www.inkscape.org/namespaces/inkscape"
   width="361.38147"
   height="362.94485"
   id="svg4389"
   sodipodi:version="0.32"
   inkscape:version="0.92.0 r15299"
   version="1.0"
   sodipodi:docname="erf-white.svg"
   inkscape:output_extension="org.inkscape.output.svg.inkscape">
  <defs
     id="defs4391">
    <linearGradient
       inkscape:collect="always"
       id="linearGradient3884">
      <stop
         style="stop-color:#e95d0f;stop-opacity:1;"
         offset="0"
         id="stop3886" />
      <stop
         id="stop3894"
         offset="0.80568159"
         style="stop-color:#e95d0f;stop-opacity:0.09803922;" />
      <stop
         style="stop-color:#e95d0f;stop-opacity:0;"
         offset="1"
         id="stop3888" />
    </linearGradient>
    <linearGradient
       inkscape:collect="always"
       xlink:href="#linearGradient3884"
       id="linearGradient3890"
       x1="222.07758"
       y1="327.76874"
       x2="366.26282"
       y2="327.76874"
       gradientUnits="userSpaceOnUse"
       gradientTransform="matrix(1,0,0,2.5857101,0,-667.43863)" />
    <clipPath
       clipPathUnits="userSpaceOnUse"
       id="clipPath3896">
      <path
         id="path3898"
         d="m 298.14566,391.11109 c -1.70647,1.11521 -2.1865,3.40122 -1.07715,5.10769 1.10642,1.71232 3.38951,2.18942 5.10768,1.083 1.70646,-1.12105 2.1865,-3.40122 1.07715,-5.10768 -1.10935,-1.71232 -3.40415,-2.19235 -5.10768,-1.08301 m 26.25847,-15.63331 c 1.45181,-1.4284 1.46352,-3.7671 0.0234,-5.22184 -1.42255,-1.44889 -3.7554,-1.46352 -5.21306,-0.0381 -1.45181,1.43425 -1.4606,3.77881 -0.038,5.2277 1.42839,1.44596 3.77295,1.46644 5.22769,0.0322 m 16.81584,-24.70129 c 1.16204,-1.68305 0.72005,-3.97785 -0.97178,-5.1311 -1.67719,-1.15326 -3.97199,-0.71713 -5.12232,0.95714 -1.15618,1.69476 -0.72005,3.98955 0.95422,5.13695 1.68597,1.15033 3.99541,0.72591 5.13988,-0.96299 m 10.51393,-34.69128 c -1.88502,-0.77859 -4.04517,0.12001 -4.81498,1.99917 -0.77567,1.89672 0.11708,4.05103 2.00209,4.82084 1.88794,0.77859 4.04224,-0.11708 4.82376,-2.00503 0.77567,-1.87915 -0.12293,-4.03638 -2.01087,-4.81498 m 0.70541,-27.23024 c -0.39222,2.00502 0.92495,3.93686 2.92997,4.31738 2.0021,0.38344 3.93394,-0.92787 4.31738,-2.9329 0.39223,-1.99916 -0.92494,-3.93394 -2.92996,-4.31445 -1.99624,-0.3893 -3.93394,0.92202 -4.31739,2.92997 m 3.01778,-34.84056 c -2.03722,0.038 -3.65587,1.72696 -3.60904,3.7671 0.0322,2.04308 1.72988,3.65295 3.7671,3.62075 2.03137,-0.0468 3.64417,-1.73281 3.6149,-3.77295 -0.0439,-2.03722 -1.74159,-3.6588 -3.77296,-3.6149 m -9.16456,-21.89133 c 0.39808,1.99917 2.33871,3.29 4.34373,2.89192 1.99624,-0.40101 3.29877,-2.35041 2.88899,-4.34958 -0.39515,-2.00502 -2.34749,-3.28999 -4.35251,-2.89192 -1.99039,0.40101 -3.29292,2.34456 -2.88021,4.34958 m -5.33892,-22.46503 c 1.88501,-0.74932 2.81289,-2.89776 2.05771,-4.79156 -0.75225,-1.89672 -2.9007,-2.81581 -4.79449,-2.06942 -1.88501,0.75225 -2.80996,2.9007 -2.06942,4.79742 0.7581,1.8938 2.90655,2.81581 4.8062,2.06356 m -16.53777,-26.46043 c 1.70353,-1.12691 2.16601,-3.42171 1.04495,-5.11354 -1.12398,-1.70647 -3.42171,-2.17186 -5.11939,-1.04788 -1.69476,1.12691 -2.16308,3.41878 -1.03617,5.11646 1.12691,1.70354 3.41,2.16309 5.11061,1.04496 m -24.78032,-26.08285 c -1.46059,1.41961 -1.48986,3.76124 -0.0615,5.21305 1.43132,1.46645 3.77003,1.48987 5.21891,0.0673 1.45767,-1.42547 1.48401,-3.7671 0.0615,-5.22477 -1.42254,-1.46352 -3.75539,-1.48401 -5.21891,-0.0556 m -4.21201,256.15401 c -1.36107,0.88982 -1.7533,2.728 -0.84884,4.092 0.89275,1.36401 2.72507,1.74452 4.08029,0.84885 1.38449,-0.88982 1.7533,-2.72508 0.8547,-4.08322 -0.88397,-1.36693 -2.71922,-1.74745 -4.08615,-0.85763 m 25.31597,-20.56538 c -1.16789,1.14155 -1.16789,3.009 -0.0234,4.17396 1.13862,1.15911 3.0207,1.17374 4.17981,0.0322 1.16204,-1.14155 1.16789,-3.01485 0.0293,-4.17981 -1.14447,-1.15911 -3.0207,-1.17375 -4.18566,-0.0264 m 17.97495,-21.14493 c -0.94837,1.32595 -0.64103,3.16706 0.67614,4.11834 1.32302,0.95422 3.18169,0.65273 4.1242,-0.66736 0.95422,-1.32302 0.65858,-3.17291 -0.67615,-4.12127 -1.32887,-0.95422 -3.15827,-0.64395 -4.12419,0.67029 m 20.57708,-30.83051 c -1.49571,-0.65858 -3.2373,0.0146 -3.90174,1.49572 -0.65858,1.49572 0.0234,3.24023 1.51328,3.89589 1.48401,0.67322 3.2256,-0.009 3.88418,-1.49279 0.67029,-1.49572 -0.006,-3.23438 -1.49572,-3.89882 m 10.49344,-35.85623 c -1.59816,-0.31612 -3.15535,0.72883 -3.47732,2.33285 -0.30734,1.59231 0.74054,3.14071 2.3387,3.46268 1.59524,0.3132 3.15242,-0.7259 3.46562,-2.32992 0.32197,-1.60109 -0.73176,-3.14949 -2.327,-3.46561 m 2.4031,-33.94196 c -1.63329,0.0146 -2.93289,1.34937 -2.92997,2.98266 0.0234,1.63036 1.364,2.94753 2.99144,2.92411 1.63621,-0.0176 2.94753,-1.35522 2.92704,-2.98265 -0.0117,-1.63329 -1.35815,-2.94168 -2.98851,-2.92412 m -3.05583,-26.94925 c 1.59524,-0.34246 2.61677,-1.89672 2.27724,-3.49781 -0.3249,-1.59524 -1.9055,-2.61677 -3.50074,-2.27724 -1.60109,0.33368 -2.61092,1.89672 -2.27138,3.49781 0.33075,1.59524 1.89086,2.61678 3.49488,2.27724 m -10.90615,-34.92836 c -1.50742,0.62638 -2.21577,2.35041 -1.59524,3.85784 0.61761,1.51913 2.34164,2.22747 3.85492,1.60694 1.50742,-0.62639 2.22162,-2.35627 1.60109,-3.85491 -0.61761,-1.51328 -2.34749,-2.22455 -3.86077,-1.60987 m -12.48382,-23.2846 c 1.34936,-0.89568 1.71817,-2.73386 0.82542,-4.08908 -0.8986,-1.364 -2.73385,-1.73573 -4.09785,-0.8342 -1.36693,0.90738 -1.72988,2.73678 -0.82543,4.09785 0.89275,1.36108 2.72508,1.73281 4.09786,0.82543 m -19.27749,-24.6047 c 1.16497,-1.13569 1.18838,-3.00607 0.0556,-4.17396 -1.14447,-1.17081 -3.02071,-1.1913 -4.18567,-0.0556 -1.17081,1.14155 -1.18838,3.00607 -0.0498,4.17689 1.13862,1.16788 3.009,1.19423 4.17981,0.0527 m -24.07782,-20.98687 c 0.93958,-1.33766 0.60004,-3.17877 -0.74054,-4.10956 -1.34059,-0.92788 -3.16999,-0.60005 -4.10664,0.74639 -0.93958,1.34058 -0.60297,3.17877 0.74639,4.10956 1.34059,0.92788 3.16999,0.59712 4.10079,-0.74639 m -26.82632,245.37958 c -2.67239,1.70939 -3.45391,5.27745 -1.74159,7.97326 1.71232,2.66653 5.28038,3.45098 7.95862,1.74451 2.67824,-1.71817 3.47147,-5.28038 1.74744,-7.96154 -1.70939,-2.68117 -5.28623,-3.47147 -7.96447,-1.75623 m 20.48635,-16.34166 c -2.27724,2.22162 -2.327,5.86871 -0.11708,8.16059 2.21577,2.27138 5.87164,2.32699 8.15473,0.12001 2.28309,-2.22163 2.3387,-5.86579 0.11708,-8.15474 -2.21577,-2.28894 -5.85993,-2.34456 -8.15473,-0.12586 m 26.79412,-14.29859 c 1.77671,-2.64019 1.07422,-6.22581 -1.56011,-8.00252 -2.64605,-1.79135 -6.22289,-1.08008 -7.9996,1.56011 -1.7855,2.63433 -1.08301,6.21118 1.56304,8.00252 2.63433,1.77086 6.21118,1.0713 7.99667,-1.56011 m 9.67972,-31.1437 c -2.92411,-1.2557 -6.31948,0.10245 -7.56347,3.03534 -1.23814,2.92704 0.11123,6.31363 3.04705,7.5664 2.92411,1.24692 6.30191,-0.11123 7.55761,-3.03534 1.244,-2.92997 -0.10537,-6.31655 -3.04119,-7.5664 m 4.47544,-14.49177 c 3.10852,0.65273 6.16728,-1.34351 6.82586,-4.4491 0.64688,-3.12023 -1.34058,-6.17606 -4.46081,-6.83171 -3.12022,-0.65273 -6.16727,1.33765 -6.82586,4.45495 -0.65272,3.11437 1.33473,6.16142 4.46081,6.82586 m 3.94565,-40.33168 c -3.18754,0.0146 -5.75456,2.61677 -5.71943,5.80139 0.009,3.18169 2.61092,5.74285 5.79846,5.72236 3.18462,-0.0263 5.74578,-2.6197 5.737,-5.80432 -0.0293,-3.18461 -2.63434,-5.73699 -5.81603,-5.71943 m -1.75329,-15.51038 c 3.10266,-0.66151 5.10183,-3.70856 4.4608,-6.82293 -0.65273,-3.1173 -3.71734,-5.11354 -6.83756,-4.46081 -3.10852,0.65273 -5.10768,3.70563 -4.46081,6.81707 0.66151,3.12023 3.71149,5.10476 6.83757,4.46667 m -14.13468,-27.76005 c 1.21472,2.94753 4.59253,4.33788 7.54298,3.10852 2.92412,-1.22058 4.32031,-4.58667 3.10852,-7.52542 -1.23814,-2.93875 -4.60423,-4.33202 -7.54006,-3.11144 -2.95045,1.2235 -4.32909,4.60423 -3.11144,7.52834 m -2.71336,-18.46962 c 2.67238,-1.71524 3.4539,-5.27452 1.75622,-7.95569 -1.72403,-2.67532 -5.29501,-3.45976 -7.97911,-1.74159 -2.6841,1.71817 -3.45976,5.28623 -1.74159,7.95862 1.71817,2.68117 5.28038,3.46269 7.96448,1.73866 m -17.02074,-23.03287 c 2.24797,-2.24211 2.26553,-5.88335 0.0263,-8.15181 -2.24211,-2.25967 -5.8892,-2.27138 -8.16058,-0.0263 -2.25968,2.23918 -2.26553,5.88628 -0.0322,8.13717 2.24211,2.26846 5.8892,2.28602 8.16644,0.041 m -28.15227,-16.42362 c 2.63434,1.77671 6.21704,1.07715 8.00253,-1.57182 1.75915,-2.64605 1.06544,-6.22289 -1.57182,-7.99375 -2.65775,-1.77086 -6.23459,-1.07129 -8.00545,1.57182 -1.77379,2.64605 -1.0713,6.22582 1.57474,7.99375 m -2.0138,194.58666 c -2.82459,1.82355 -3.61197,5.5848 -1.79135,8.39768 1.80891,2.80118 5.57016,3.60904 8.38597,1.78842 2.80996,-1.82062 3.61197,-5.57015 1.79428,-8.38889 -1.83233,-2.80703 -5.57601,-3.6149 -8.3889,-1.79721 m 23.6417,-6.40143 c 2.40895,-2.32992 2.47042,-6.17605 0.14342,-8.58501 -2.33285,-2.40895 -6.15556,-2.47627 -8.56159,-0.1522 -2.42651,2.32699 -2.49383,6.17019 -0.16684,8.57915 2.327,2.40895 6.17313,2.47627 8.58501,0.15806 m 14.35713,-21.03663 c 1.87623,-2.75728 1.15618,-6.53608 -1.6128,-8.41817 -2.77191,-1.87916 -6.53901,-1.15911 -8.42109,1.60987 -1.89087,2.77191 -1.16496,6.54486 1.60694,8.42695 2.76898,1.87916 6.53608,1.15618 8.42695,-1.61865 m 1.03324,-18.00715 c 3.07047,1.32887 6.64146,-0.0849 7.97619,-3.15535 1.33473,-3.07047 -0.0673,-6.64731 -3.1495,-7.97911 -3.06754,-1.33766 -6.65023,0.0732 -7.9674,3.14364 -1.34058,3.07339 0.0732,6.64438 3.14071,7.99082 m 12.88776,-25.45354 c 0.74054,-3.26072 -1.29668,-6.51266 -4.56033,-7.25906 -3.2695,-0.74347 -6.51852,1.2879 -7.26198,4.56033 -0.75225,3.26658 1.29082,6.51852 4.56032,7.26491 3.26658,0.7464 6.51267,-1.2996 7.26199,-4.56618 m -5.60821,-32.91456 c -3.34561,-0.0234 -6.09117,2.67824 -6.1058,6.01799 -0.0293,3.35439 2.66653,6.09117 6.02092,6.11459 3.35438,0.0234 6.08239,-2.66946 6.11166,-6.02385 0.0146,-3.34853 -2.67532,-6.08239 -6.02678,-6.10873 m -3.62953,-11.48278 c 3.28707,-0.65565 5.41503,-3.84905 4.75644,-7.13905 -0.65858,-3.27535 -3.85198,-5.40916 -7.13319,-4.75643 -3.28707,0.65858 -5.41795,3.85198 -4.7623,7.13612 0.64981,3.28706 3.85199,5.41502 7.13905,4.75936 m -15.4255,-24.17442 c 1.26156,3.09974 4.80035,4.59253 7.89716,3.32512 3.10851,-1.26155 4.60423,-4.79742 3.32511,-7.90593 -1.2557,-3.09974 -4.78863,-4.59838 -7.89715,-3.32512 -3.10266,1.25863 -4.59252,4.80035 -3.32512,7.90593 m -3.85198,-16.3358 c 2.79825,-1.83818 3.57391,-5.59943 1.7211,-8.39768 -1.83818,-2.7924 -5.61114,-3.57099 -8.40061,-1.72695 -2.78946,1.84403 -3.57098,5.61113 -1.72402,8.40353 1.84111,2.79825 5.60235,3.57391 8.40353,1.7211 m -15.48111,-17.09099 c 2.38846,-2.35334 2.40017,-6.19361 0.0468,-8.5733 -2.35627,-2.37675 -6.19654,-2.4031 -8.56745,-0.0498 -2.38846,2.36505 -2.40017,6.19655 -0.0498,8.58208 2.3592,2.38261 6.18777,2.4031 8.57038,0.041 m -27.21269,164.53768 c -3.31926,2.11625 -4.27933,6.51852 -2.16016,9.83193 2.12211,3.31633 6.52438,4.28518 9.84071,2.166 3.31048,-2.1221 4.27348,-6.52729 2.1543,-9.8407 -2.11625,-3.30756 -6.51266,-4.27641 -9.83485,-2.15723 m 24.28857,-1.53962 c 2.80118,-2.76898 2.83045,-7.27662 0.0556,-10.07195 -2.76605,-2.79825 -7.27662,-2.82459 -10.06609,-0.0556 -2.80411,2.76898 -2.81874,7.27077 -0.0527,10.07194 2.75727,2.7924 7.26784,2.81581 10.06316,0.0556 m 13.08094,-15.5982 c 2.23334,-3.24901 1.39035,-7.67762 -1.85281,-9.89925 -3.24023,-2.22162 -7.67177,-1.39327 -9.8934,1.85575 -2.22747,3.24023 -1.40205,7.67177 1.84111,9.89632 3.26072,2.21869 7.68055,1.3962 9.9051,-1.85282 m 1.37864,-15.74454 c 3.64124,1.50157 7.79763,-0.22831 9.30506,-3.86662 1.48986,-3.63539 -0.24002,-7.79764 -3.87247,-9.29628 -3.64417,-1.49865 -7.80349,0.23124 -9.29336,3.86369 -1.51913,3.63831 0.21661,7.80349 3.86077,9.29921 m 15.2089,-22.94799 c 0.79908,-3.84906 -1.66841,-7.61616 -5.52625,-8.41817 -3.85491,-0.79908 -7.62201,1.66841 -8.41524,5.51747 -0.80201,3.86662 1.66841,7.62786 5.52625,8.42695 3.84906,0.80201 7.61616,-1.66842 8.41524,-5.52625 m 2.28894,-20.93712 c 0.0234,-3.93394 -3.14364,-7.1449 -7.08343,-7.17125 -3.92224,-0.0351 -7.13613,3.13194 -7.1654,7.06002 -0.0263,3.93395 3.13194,7.14198 7.05417,7.17711 3.9515,0.0322 7.15076,-3.13486 7.19466,-7.06588 m -16.58753,-19.70776 c 0.88689,3.8315 4.71253,6.21704 8.54988,5.32722 3.82272,-0.89568 6.2024,-4.71839 5.31258,-8.54696 -0.88689,-3.83149 -4.6979,-6.21118 -8.53818,-5.32428 -3.82856,0.88689 -6.22288,4.72131 -5.32428,8.54402 m -1.41669,-27.21854 c -3.60611,1.56011 -5.28038,5.73993 -3.71148,9.34897 1.55718,3.61782 5.74285,5.27745 9.35774,3.72319 3.60611,-1.55718 5.27453,-5.74285 3.71734,-9.36067 -1.55718,-3.61489 -5.74285,-5.26867 -9.3636,-3.71149 m -11.61449,-5.57601 c 2.13674,3.29878 6.55071,4.23543 9.84071,2.09869 3.29584,-2.14845 4.24128,-6.55657 2.10161,-9.85242 -2.14259,-3.30462 -6.56242,-4.2442 -9.84363,-2.09576 -3.31049,2.14552 -4.24714,6.55072 -2.09869,9.84949 m -1.71232,-14.20199 c 2.78362,-2.79825 2.77191,-7.29711 -0.0176,-10.06902 -2.78362,-2.77776 -7.30004,-2.76605 -10.06902,0.0205 -2.7719,2.78361 -2.76605,7.29711 0.0176,10.07194 2.79533,2.77191 7.3059,2.7602 10.06902,-0.0234 m -23.66511,-11.22227 c 3.25486,2.20406 7.6864,1.3318 9.87875,-1.926 2.20406,-3.26364 1.34059,-7.6864 -1.92599,-9.88461 -3.26365,-2.19821 -7.69519,-1.3318 -9.8729,1.92599 -2.20406,3.26073 -1.34351,7.68934 1.92014,9.88462 m -13.24193,18.03349 c 3.74368,2.50847 8.8221,1.5045 11.3335,-2.2509 2.5114,-3.74661 1.50742,-8.82795 -2.24212,-11.34227 -3.76124,-2.50848 -8.82502,-1.49865 -11.34813,2.25967 -2.5114,3.74954 -1.49864,8.82502 2.25675,11.3335 m 29.68896,5.50576 c -2.76605,-3.56514 -7.89715,-4.22079 -11.46229,-1.44596 -3.57098,2.75142 -4.22957,7.88837 -1.46352,11.45936 2.76313,3.57099 7.90301,4.22665 11.47107,1.45474 3.57684,-2.75727 4.21201,-7.89423 1.45474,-11.46814 m 8.91284,36.97144 c 4.29396,-1.38742 6.65901,-5.99458 5.28038,-10.28855 -1.3962,-4.29982 -5.99458,-6.65316 -10.30318,-5.2716 -4.2969,1.38742 -6.64731,6.00043 -5.25111,10.29147 1.37278,4.29397 5.98287,6.65609 10.27391,5.26868 m -4.05103,64.07875 c 2.47921,-3.77296 1.42255,-8.83381 -2.35626,-11.31008 -3.77588,-2.47921 -8.8543,-1.41962 -11.31594,2.35626 -2.4792,3.77588 -1.42547,8.84844 2.35334,11.31886 3.77881,2.47335 8.84552,1.41669 11.31886,-2.36504 m -0.35124,-15.64796 c 4.29104,1.3962 8.90698,-0.95128 10.30318,-5.24232 1.39327,-4.2969 -0.95422,-8.90699 -5.24233,-10.30611 -4.30275,-1.39913 -8.91284,0.94836 -10.31196,5.24818 -1.39034,4.28226 0.94251,8.90698 5.25111,10.30025 m 14.4947,-30.40608 c 0.11123,-4.51935 -3.47732,-8.25718 -7.97618,-8.35963 -4.5135,-0.1083 -8.26011,3.47732 -8.35963,7.98789 -0.10245,4.5135 3.47147,8.25718 7.99082,8.35085 4.51057,0.1083 8.25425,-3.47147 8.34499,-7.97911 m -33.04042,66.84773 c 3.5505,-2.80703 4.14761,-7.93814 1.34643,-11.48863 -2.8041,-3.53001 -7.93813,-4.13884 -11.4857,-1.33766 -3.53879,2.79532 -4.14176,7.93813 -1.34058,11.47985 2.79532,3.54172 7.94106,4.13883 11.47985,1.34644 m -32.52527,-28.2635 c -5.01109,1.61865 -7.76251,6.98685 -6.14385,11.99794 1.61279,5.00231 6.98099,7.75665 11.98037,6.14093 5.01694,-1.6128 7.76836,-6.98977 6.14971,-11.98623 -1.6128,-5.01402 -6.97514,-7.76251 -11.98623,-6.15264 m 27.47905,1.64793 c 3.91931,-3.53001 4.22665,-9.55679 0.70542,-13.45561 -3.52709,-3.90759 -9.55093,-4.22664 -13.46146,-0.70541 -3.90174,3.53293 -4.21494,9.55385 -0.68785,13.45853 3.52123,3.91345 9.54507,4.22371 13.44389,0.70249 m -0.14343,-17.8286 c 4.75937,2.2304 10.4349,0.19611 12.66823,-4.57497 2.24211,-4.75936 0.20197,-10.43782 -4.56618,-12.66822 -4.75937,-2.24212 -10.4349,-0.19611 -12.66237,4.5574 -2.24797,4.76522 -0.19026,10.44075 4.56032,12.68579 m 5.9097,-41.73959 c -5.26867,-0.0556 -9.57728,4.16225 -9.62118,9.428 -0.0556,5.25989 4.16225,9.56849 9.41921,9.62118 5.26867,0.0498 9.58313,-4.16225 9.62704,-9.428 0.0527,-5.26574 -4.16811,-9.5802 -9.42507,-9.62118 m -4.6657,-4.493 c 4.78863,-2.19236 6.88147,-7.85032 4.68326,-12.62725 -2.19528,-4.78864 -7.84154,-6.89025 -12.62432,-4.68912 -4.78278,2.18943 -6.88147,7.84447 -4.69497,12.62139 2.20113,4.78864 7.85324,6.89318 12.63603,4.69498 m -14.02052,-19.34774 c 3.40122,-4.01589 2.89777,-10.02803 -1.11521,-13.4234 -4.01882,-3.40122 -10.02803,-2.90362 -13.42633,1.11813 -3.40122,4.01297 -2.90947,10.02218 1.12106,13.4234 4.00712,3.40415 10.02218,2.9007 13.42048,-1.11813"
         inkscape:connector-curvature="0" />
    </clipPath>
    <linearGradient
       inkscape:collect="always"
       xlink:href="#linearGradient3884"
       id="linearGradient4013"
       gradientUnits="userSpaceOnUse"
       gradientTransform="matrix(1,0,0,2.5857101,0,-667.43863)"
       x1="222.07758"
       y1="327.76874"
       x2="366.26282"
       y2="327.76874" />
    <linearGradient
       inkscape:collect="always"
       xlink:href="#linearGradient3884"
       id="linearGradient4281"
       gradientUnits="userSpaceOnUse"
       gradientTransform="matrix(1,0,0,2.5857101,0,-667.43863)"
       x1="222.07758"
       y1="327.76874"
       x2="366.26282"
       y2="327.76874" />
    <linearGradient
       inkscape:collect="always"
       xlink:href="#linearGradient3884"
       id="linearGradient4548"
       gradientUnits="userSpaceOnUse"
       gradientTransform="matrix(1,0,0,2.5857101,0,-667.43863)"
       x1="222.07758"
       y1="327.76874"
       x2="366.26282"
       y2="327.76874" />
  </defs>
  <sodipodi:namedview
     id="base"
     pagecolor="#ffffff"
     bordercolor="#666666"
     borderopacity="1.0"
     gridtolerance="10000"
     guidetolerance="10"
     objecttolerance="10"
     inkscape:pageopacity="0.0"
     inkscape:pageshadow="2"
     inkscape:zoom="0.7"
     inkscape:cx="218.48449"
     inkscape:cy="196.94114"
     inkscape:document-units="px"
     inkscape:current-layer="layer1"
     showgrid="false"
     inkscape:window-width="1024"
     inkscape:window-height="710"
     inkscape:window-x="0"
     inkscape:window-y="0"
     inkscape:window-maximized="0" />
  <metadata
     id="metadata4394">
    <rdf:RDF>
      <cc:Work
         rdf:about="">
        <dc:format>image/svg+xml</dc:format>
        <dc:type
           rdf:resource="http://purl.org/dc/dcmitype/StillImage" />
        <dc:title></dc:title>
      </cc:Work>
    </rdf:RDF>
  </metadata>
  <g
     inkscape:label="Layer 1"
     inkscape:groupmode="layer"
     id="layer1"
     transform="translate(-37.219481,-113.05092)">
    <g
       id="g4813">
      <rect
         transform="matrix(1.0415878,0,0,1.0415878,5.1233692,6.9246495)"
         clip-path="url(#clipPath3896)"
         y="132.87737"
         x="216.93813"
         height="288.03101"
         width="154.784"
         id="rect3104"
         style="fill:url(#linearGradient4548);fill-opacity:1;fill-rule:nonzero" />
      <g
         id="g4682">
        <path
           d="m 298.32382,158.56133 c -1.21646,1.74391 -3.60364,2.17377 -5.35363,0.96646 -1.73781,-1.21341 -2.17989,-3.60669 -0.97866,-5.34754 1.22865,-1.75304 3.62193,-2.18292 5.35973,-0.97561 1.74999,1.21037 2.19207,3.6067 0.97256,5.35669"
           style="fill:#e95d0f;fill-opacity:1;fill-rule:nonzero;stroke:none;stroke-width:1.06666672"
           id="path3089"
           inkscape:connector-curvature="0" />
        <path
           d="m 235.44297,239.43908 c -1.46952,5.28046 -6.95731,8.36887 -12.23167,6.88411 -5.28352,-1.4695 -8.35668,-6.94814 -6.88107,-12.23166 1.45731,-5.27437 6.9451,-8.35362 12.22556,-6.88107 5.27132,1.46951 8.35973,6.95119 6.88718,12.22862"
           style="fill:#e95d0f;fill-opacity:1;fill-rule:nonzero;stroke:none;stroke-width:1.06666672"
           id="path2869"
           inkscape:connector-curvature="0" />
        <path
           d="m 212.41257,351.00878 c 0.49998,-5.46035 5.32314,-9.48473 10.77738,-8.99083 5.4695,0.49086 9.48473,5.31401 8.99083,10.77741 -0.4878,5.45119 -5.31096,9.47861 -10.77131,8.97862 -5.46338,-0.4817 -9.48471,-5.314 -8.9969,-10.7652"
           style="fill:#e95d0f;fill-opacity:1;fill-rule:nonzero;stroke:none;stroke-width:1.06666672"
           id="path2871"
           inkscape:connector-curvature="0" />
        <path
           d="m 191.00715,344.1521 c 2.55183,-4.8506 8.564,-6.7012 13.41154,-4.14633 4.84145,2.56096 6.70119,8.5579 4.14022,13.41153 -2.55182,4.8445 -8.56398,6.69509 -13.41153,4.14023 -4.84144,-2.55791 -6.69814,-8.56399 -4.14023,-13.40543"
           style="fill:#e95d0f;fill-opacity:1;fill-rule:nonzero;stroke:none;stroke-width:1.06666672"
           id="path2873"
           inkscape:connector-curvature="0" />
        <path
           d="m 173.29076,328.79545 c 4.28352,-3.41158 10.52129,-2.71036 13.93897,1.57926 3.41766,4.29266 2.71341,10.53044 -1.57622,13.94811 -4.28352,3.41463 -10.53349,2.70121 -13.95116,-1.5884 -3.41158,-4.28048 -2.69511,-10.5274 1.58841,-13.93897"
           style="fill:#e95d0f;fill-opacity:1;fill-rule:nonzero;stroke:none;stroke-width:1.06666672"
           id="path2875"
           inkscape:connector-curvature="0" />
        <path
           d="m 163.25726,307.76503 c 5.28961,-1.42377 10.73472,1.71647 12.16459,7.00607 1.40853,5.30182 -1.7256,10.73777 -7.02742,12.1646 -5.28961,1.42073 -10.72862,-1.72561 -12.16153,-7.02741 -1.41159,-5.28047 1.73475,-10.72557 7.02436,-12.14326"
           style="fill:#e95d0f;fill-opacity:1;fill-rule:nonzero;stroke:none;stroke-width:1.06666672"
           id="path2877"
           inkscape:connector-curvature="0" />
        <path
           d="m 162.28469,285.42671 c 5.43597,0.71036 9.26217,5.69509 8.54572,11.1341 -0.71952,5.42681 -5.7012,9.24691 -11.13716,8.5274 -5.43596,-0.71035 -9.26521,-5.70729 -8.5457,-11.1341 0.71951,-5.42985 5.71339,-9.25301 11.13714,-8.5274"
           style="fill:#e95d0f;fill-opacity:1;fill-rule:nonzero;stroke:none;stroke-width:1.06666672"
           id="path2879"
           inkscape:connector-curvature="0" />
        <path
           d="m 170.41883,263.6707 c 4.70119,2.81705 6.23167,8.90545 3.41156,13.61884 -2.82012,4.6951 -8.91155,6.22253 -13.61276,3.39634 -4.69815,-2.81097 -6.22254,-8.91155 -3.41461,-13.60971 2.82011,-4.6951 8.91765,-6.21644 13.61581,-3.40547"
           style="fill:#e95d0f;fill-opacity:1;fill-rule:nonzero;stroke:none;stroke-width:1.06666672"
           id="path2881"
           inkscape:connector-curvature="0" />
        <path
           d="m 186.52547,246.95124 c 3.19816,4.44815 2.17377,10.64935 -2.28354,13.84446 -4.46035,3.19207 -10.64934,2.17377 -13.84141,-2.29267 -3.19815,-4.44206 -2.17377,-10.64325 2.28048,-13.83227 4.43901,-3.19816 10.64936,-2.17682 13.84447,2.28048"
           style="fill:#e95d0f;fill-opacity:1;fill-rule:nonzero;stroke:none;stroke-width:1.06666672"
           id="path2883"
           inkscape:connector-curvature="0" />
        <path
           d="m 210.55282,237.55189 c 0.91767,5.41157 -2.72256,10.53655 -8.12802,11.45422 -5.41157,0.90243 -10.52131,-2.73475 -11.43289,-8.14326 -0.91463,-5.40241 2.72559,-10.52435 8.13107,-11.43288 5.39328,-0.91768 10.5213,2.72559 11.42984,8.12192"
           style="fill:#e95d0f;fill-opacity:1;fill-rule:nonzero;stroke:none;stroke-width:1.06666672"
           id="path2885"
           inkscape:connector-curvature="0" />
        <path
           d="m 227.47348,377.22209 c 0,4.70425 -3.81401,8.51521 -8.52131,8.51521 -4.69815,0 -8.50607,-3.81096 -8.50607,-8.51521 0,-4.6951 3.80792,-8.51217 8.50607,-8.51217 4.7073,0 8.52131,3.81707 8.52131,8.51217"
           style="fill:#e95d0f;fill-opacity:1;fill-rule:nonzero;stroke:none;stroke-width:1.06666672"
           id="path2887"
           inkscape:connector-curvature="0" />
        <path
           d="m 253.17765,370.19773 c 1.49085,4.46035 -0.91767,9.2896 -5.37497,10.77129 -4.46035,1.48171 -9.28351,-0.92376 -10.77131,-5.38411 -1.49085,-4.46036 0.91768,-9.28046 5.38108,-10.77131 4.46644,-1.4878 9.2835,0.91769 10.7652,5.38413"
           style="fill:#e95d0f;fill-opacity:1;fill-rule:nonzero;stroke:none;stroke-width:1.06666672"
           id="path2889"
           inkscape:connector-curvature="0" />
        <path
           d="m 209.93086,212.16784 c 0.14329,-4.70121 4.07315,-8.38717 8.77742,-8.24082 4.71338,0.15244 8.38715,4.07925 8.24081,8.7835 -0.14939,4.7012 -4.09145,8.38717 -8.7774,8.23168 -4.7012,-0.1372 -8.39326,-4.07621 -8.24083,-8.77436"
           style="fill:#e95d0f;fill-opacity:1;fill-rule:nonzero;stroke:none;stroke-width:1.06666672"
           id="path2891"
           inkscape:connector-curvature="0" />
        <path
           d="m 235.11674,212.8843 c 1.49389,-4.4573 6.33229,-6.85668 10.7896,-5.35973 4.46339,1.50304 6.85363,6.33228 5.35364,10.78653 -1.4939,4.46036 -6.32315,6.85669 -10.77741,5.35975 -4.46339,-1.49999 -6.85973,-6.3262 -5.36583,-10.78655"
           style="fill:#e95d0f;fill-opacity:1;fill-rule:nonzero;stroke:none;stroke-width:1.06666672"
           id="path2893"
           inkscape:connector-curvature="0" />
        <path
           d="m 184.81814,219.24403 c -1.39023,-4.49084 1.12196,-9.25911 5.60975,-10.6463 4.49693,-1.38719 9.25912,1.12499 10.65545,5.61583 1.39329,4.49389 -1.12804,9.26825 -5.62193,10.6524 -4.48779,1.39329 -9.26217,-1.125 -10.64327,-5.62193"
           style="fill:#e95d0f;fill-opacity:1;fill-rule:nonzero;stroke:none;stroke-width:1.06666672"
           id="path2895"
           inkscape:connector-curvature="0" />
        <path
           d="m 161.83348,234.95739 c -2.8384,-3.75304 -2.09449,-9.09448 1.66768,-11.92679 3.74999,-2.83231 9.08534,-2.0884 11.92069,1.65853 2.8323,3.75914 2.0884,9.10058 -1.66767,11.92984 -3.75,2.8384 -9.09143,2.09755 -11.9207,-1.66158"
           style="fill:#e95d0f;fill-opacity:1;fill-rule:nonzero;stroke:none;stroke-width:1.06666672"
           id="path2897"
           inkscape:connector-curvature="0" />
        <path
           d="m 137.72992,278.29868 c -4.43901,-1.55487 -6.78352,-6.4085 -5.23169,-10.85056 1.55792,-4.43901 6.40851,-6.76827 10.85362,-5.2256 4.43596,1.55488 6.78046,6.41157 5.21949,10.85363 -1.54573,4.43291 -6.39937,6.76826 -10.84142,5.22253"
           style="fill:#e95d0f;fill-opacity:1;fill-rule:nonzero;stroke:none;stroke-width:1.06666672"
           id="path2899"
           inkscape:connector-curvature="0" />
        <path
           d="m 145.96769,254.36281 c -3.88108,-2.65549 -4.85973,-7.9573 -2.19816,-11.83838 2.66462,-3.87499 7.96644,-4.85974 11.83226,-2.19207 3.88719,2.65548 4.8689,7.96034 2.20123,11.83837 -2.65549,3.87499 -7.9573,4.85669 -11.83533,2.19208"
           style="fill:#e95d0f;fill-opacity:1;fill-rule:nonzero;stroke:none;stroke-width:1.06666672"
           id="path2901"
           inkscape:connector-curvature="0" />
        <path
           d="m 136.2848,303.86871 c -4.69815,-0.17074 -8.37191,-4.11584 -8.20423,-8.81704 0.17987,-4.70121 4.12803,-8.37497 8.82008,-8.20118 4.70121,0.16462 8.36582,4.11278 8.20729,8.81398 -0.16768,4.69815 -4.11584,8.37192 -8.82314,8.20424"
           style="fill:#e95d0f;fill-opacity:1;fill-rule:nonzero;stroke:none;stroke-width:1.06666672"
           id="path2903"
           inkscape:connector-curvature="0" />
        <path
           d="m 143.02258,329.16739 c -4.51827,1.32317 -9.24996,-1.25303 -10.57008,-5.77132 -1.32622,-4.50608 1.26219,-9.24386 5.76827,-10.57008 4.49693,-1.3262 9.24691,1.25914 10.56094,5.77437 1.32622,4.51218 -1.25,9.23777 -5.75913,10.56703"
           style="fill:#e95d0f;fill-opacity:1;fill-rule:nonzero;stroke:none;stroke-width:1.06666672"
           id="path2905"
           inkscape:connector-curvature="0" />
        <path
           d="m 157.75728,351.09719 c -3.80181,2.77132 -9.12802,1.95122 -11.91154,-1.84146 -2.77133,-3.79266 -1.95121,-9.12497 1.83841,-11.9024 3.78962,-2.78352 9.11887,-1.9634 11.90544,1.82926 2.77133,3.79572 1.95731,9.12497 -1.83231,11.9146"
           style="fill:#e95d0f;fill-opacity:1;fill-rule:nonzero;stroke:none;stroke-width:1.06666672"
           id="path2907"
           inkscape:connector-curvature="0" />
        <path
           d="m 199.07725,375.78002 c -1.62804,4.41156 -6.50607,6.68595 -10.92985,5.06706 -4.40546,-1.61281 -6.68595,-6.50303 -5.064,-10.92069 1.6189,-4.41462 6.51218,-6.68596 10.92375,-5.0701 4.41156,1.61585 6.67985,6.50607 5.0701,10.92373"
           style="fill:#e95d0f;fill-opacity:1;fill-rule:nonzero;stroke:none;stroke-width:1.06666672"
           id="path2909"
           inkscape:connector-curvature="0" />
        <path
           d="m 177.56818,367.0331 c -2.71951,3.84145 -8.03351,4.74998 -11.87496,2.03353 -3.83229,-2.71949 -4.74388,-8.03655 -2.03047,-11.87191 2.72254,-3.83839 8.03351,-4.74388 11.87191,-2.02437 3.83533,2.7134 4.74693,8.03045 2.03352,11.86275"
           style="fill:#e95d0f;fill-opacity:1;fill-rule:nonzero;stroke:none;stroke-width:1.06666672"
           id="path2911"
           inkscape:connector-curvature="0" />
        <path
           d="m 226.37593,190.43012 c 0,4.10059 -3.32012,7.4207 -7.42376,7.4207 -4.08839,0 -7.40546,-3.32011 -7.40546,-7.4207 0,-4.0945 3.31707,-7.41766 7.40546,-7.41766 4.10364,0 7.42376,3.32316 7.42376,7.41766"
           style="fill:#e95d0f;fill-opacity:1;fill-rule:nonzero;stroke:none;stroke-width:1.06666672"
           id="path2913"
           inkscape:connector-curvature="0" />
        <path
           d="m 246.6045,193.95754 c -0.80182,4.01218 -4.70729,6.61888 -8.71947,5.81705 -4.01219,-0.79877 -6.62193,-4.7134 -5.8201,-8.72253 0.80182,-4.02132 4.70424,-6.62498 8.72557,-5.82314 4.01219,0.80182 6.61584,4.7073 5.814,8.72862"
           style="fill:#e95d0f;fill-opacity:1;fill-rule:nonzero;stroke:none;stroke-width:1.06666672"
           id="path2915"
           inkscape:connector-curvature="0" />
        <path
           d="m 264.81175,200.89044 c -1.53658,3.80182 -5.85973,5.63413 -9.65545,4.09755 -3.80181,-1.53048 -5.63412,-5.85668 -4.10364,-9.65545 1.53353,-3.79877 5.84753,-5.62803 9.65545,-4.10364 3.79877,1.54267 5.63108,5.86278 4.10364,9.66154"
           style="fill:#e95d0f;fill-opacity:1;fill-rule:nonzero;stroke:none;stroke-width:1.06666672"
           id="path2917"
           inkscape:connector-curvature="0" />
        <path
           d="m 114.51964,287.63097 c 4.10365,-0.0366 7.43594,3.25913 7.47558,7.36277 0.0305,4.09451 -3.27133,7.43595 -7.35973,7.46949 -4.10974,0.0305 -7.4329,-3.26524 -7.47558,-7.35363 -0.0274,-4.10669 3.26218,-7.44815 7.35973,-7.47863"
           style="fill:#e95d0f;fill-opacity:1;fill-rule:nonzero;stroke:none;stroke-width:1.06666672"
           id="path2919"
           inkscape:connector-curvature="0" />
        <path
           d="m 117.89157,267.36885 c 4.02134,0.77743 6.65547,4.66156 5.88717,8.68289 -0.77133,4.02438 -4.66156,6.65851 -8.67679,5.88412 -4.03351,-0.77134 -6.65545,-4.65851 -5.89022,-8.67679 0.76829,-4.02742 4.65242,-6.66156 8.67984,-5.89022"
           style="fill:#e95d0f;fill-opacity:1;fill-rule:nonzero;stroke:none;stroke-width:1.06666672"
           id="path2921"
           inkscape:connector-curvature="0" />
        <path
           d="m 124.69948,249.12197 c 3.80181,1.50608 5.66767,5.81095 4.15547,9.62191 -1.5,3.81096 -5.814,5.67681 -9.62192,4.16767 -3.8079,-1.50305 -5.67376,-5.814 -4.16156,-9.61887 1.4939,-3.81095 5.8079,-5.67986 9.62801,-4.17071"
           style="fill:#e95d0f;fill-opacity:1;fill-rule:nonzero;stroke:none;stroke-width:1.06666672"
           id="path2923"
           inkscape:connector-curvature="0" />
        <path
           d="m 136.15675,230.61899 c 3.40548,2.26523 4.33536,6.86582 2.08536,10.27739 -2.26524,3.41768 -6.86887,4.34756 -10.2835,2.08232 -3.41157,-2.26219 -4.34754,-6.85668 -2.08535,-10.27131 2.25913,-3.42376 6.85972,-4.35059 10.28349,-2.0884"
           style="fill:#e95d0f;fill-opacity:1;fill-rule:nonzero;stroke:none;stroke-width:1.06666672"
           id="path2925"
           inkscape:connector-curvature="0" />
        <path
           d="m 149.74206,216.16173 c 2.92377,2.86279 2.9695,7.56095 0.10368,10.48471 -2.87803,2.92377 -7.56399,2.96646 -10.49386,0.10059 -2.92376,-2.86889 -2.96949,-7.56704 -0.10368,-10.49082 2.86585,-2.92072 7.564,-2.97255 10.49386,-0.0945"
           style="fill:#e95d0f;fill-opacity:1;fill-rule:nonzero;stroke:none;stroke-width:1.06666672"
           id="path2927"
           inkscape:connector-curvature="0" />
        <path
           d="m 166.62309,203.99104 c 2.25001,3.42073 1.32013,8.02436 -2.10668,10.28046 -3.41768,2.25607 -8.01523,1.314 -10.27131,-2.10366 -2.25304,-3.42071 -1.32316,-8.01522 2.1006,-10.2774 3.41157,-2.25303 8.00912,-1.31402 10.27739,2.1006"
           style="fill:#e95d0f;fill-opacity:1;fill-rule:nonzero;stroke:none;stroke-width:1.06666672"
           id="path2929"
           inkscape:connector-curvature="0" />
        <path
           d="m 183.81205,196.14351 c 1.64939,3.74998 -0.0579,8.12802 -3.8079,9.7774 -3.74389,1.64634 -8.12193,-0.0487 -9.76521,-3.79877 -1.65242,-3.74998 0.0518,-8.12801 3.78961,-9.77435 3.7439,-1.65243 8.12192,0.0487 9.7835,3.79572"
           style="fill:#e95d0f;fill-opacity:1;fill-rule:nonzero;stroke:none;stroke-width:1.06666672"
           id="path2931"
           inkscape:connector-curvature="0" />
        <path
           d="m 204.05893,191.49718 c 0.95426,3.98169 -1.49999,7.98778 -5.48168,8.94205 -3.99389,0.95731 -7.98169,-1.49695 -8.94204,-5.47864 -0.95731,-3.9817 1.4939,-7.98168 5.47253,-8.93899 3.99694,-0.95731 7.98474,1.4939 8.95119,5.47558"
           style="fill:#e95d0f;fill-opacity:1;fill-rule:nonzero;stroke:none;stroke-width:1.06666672"
           id="path2933"
           inkscape:connector-curvature="0" />
        <path
           d="m 211.72049,398.70372 c -0.0305,-4.10365 3.26523,-7.44205 7.37192,-7.46644 4.09145,-0.0335 7.4268,3.26829 7.46949,7.35972 0.0152,4.09755 -3.28047,7.4451 -7.37193,7.4695 -4.09144,0.0305 -7.44204,-3.27133 -7.46948,-7.36278"
           style="fill:#e95d0f;fill-opacity:1;fill-rule:nonzero;stroke:none;stroke-width:1.06666672"
           id="path2935"
           inkscape:connector-curvature="0" />
        <path
           d="m 191.46142,395.32569 c 0.77439,-4.02134 4.66767,-6.65242 8.69204,-5.88108 4.01522,0.77134 6.65547,4.66156 5.88108,8.68289 -0.77134,4.02132 -4.66157,6.65547 -8.68899,5.88717 -4.02438,-0.77439 -6.65242,-4.66767 -5.88413,-8.68898"
           style="fill:#e95d0f;fill-opacity:1;fill-rule:nonzero;stroke:none;stroke-width:1.06666672"
           id="path2937"
           inkscape:connector-curvature="0" />
        <path
           d="m 173.21454,388.51778 c 1.51218,-3.80487 5.81704,-5.67376 9.62497,-4.17681 3.8079,1.51828 5.67985,5.82315 4.17376,9.6402 -1.50914,3.80487 -5.82315,5.66766 -9.62496,4.15548 -3.80792,-1.5061 -5.68596,-5.814 -4.17377,-9.61887"
           style="fill:#e95d0f;fill-opacity:1;fill-rule:nonzero;stroke:none;stroke-width:1.06666672"
           id="path2939"
           inkscape:connector-curvature="0" />
        <path
           d="m 154.71765,377.05136 c 2.27134,-3.41767 6.87193,-4.35059 10.2896,-2.0823 3.41158,2.25912 4.34145,6.86582 2.07317,10.27739 -2.25304,3.41462 -6.86279,4.34144 -10.2774,2.08231 -3.41767,-2.26524 -4.34145,-6.87192 -2.08537,-10.2774"
           style="fill:#e95d0f;fill-opacity:1;fill-rule:nonzero;stroke:none;stroke-width:1.06666672"
           id="path2941"
           inkscape:connector-curvature="0" />
        <path
           d="m 140.2726,363.45081 c 2.85364,-2.91768 7.55179,-2.96646 10.46946,-0.0976 2.93902,2.86889 2.9695,7.564 0.10976,10.48776 -2.87195,2.91768 -7.564,2.97254 -10.48777,0.10059 -2.92376,-2.87803 -2.9695,-7.56704 -0.0914,-10.49081"
           style="fill:#e95d0f;fill-opacity:1;fill-rule:nonzero;stroke:none;stroke-width:1.06666672"
           id="path2943"
           inkscape:connector-curvature="0" />
        <path
           d="m 128.11105,346.56671 c 3.41768,-2.25913 8.02131,-1.31096 10.27741,2.10366 2.25608,3.41462 1.314,8.01827 -2.10366,10.2774 -3.42377,2.25303 -8.02436,1.31402 -10.2774,-2.10975 -2.24999,-3.41767 -1.30792,-8.00911 2.10365,-10.27131"
           style="fill:#e95d0f;fill-opacity:1;fill-rule:nonzero;stroke:none;stroke-width:1.06666672"
           id="path2945"
           inkscape:connector-curvature="0" />
        <path
           d="m 120.26961,329.37471 c 3.75609,-1.64939 8.13108,0.0579 9.76522,3.80182 1.66158,3.75608 -0.0397,8.12801 -3.80182,9.77739 -3.73779,1.64939 -8.11583,-0.0579 -9.75301,-3.8079 -1.65854,-3.74999 0.0396,-8.12192 3.78961,-9.77131"
           style="fill:#e95d0f;fill-opacity:1;fill-rule:nonzero;stroke:none;stroke-width:1.06666672"
           id="path2947"
           inkscape:connector-curvature="0" />
        <path
           d="m 115.63549,309.12174 c 3.98169,-0.95731 7.98167,1.50304 8.93593,5.48168 0.95732,3.98779 -1.49999,7.99083 -5.48167,8.93899 -3.9817,0.96646 -7.98779,-1.4939 -8.93595,-5.47863 -0.95426,-3.98779 1.49389,-7.98473 5.48169,-8.94204"
           style="fill:#e95d0f;fill-opacity:1;fill-rule:nonzero;stroke:none;stroke-width:1.06666672"
           id="path2949"
           inkscape:connector-curvature="0" />
        <path
           d="m 252.06789,393.45069 c -1.58535,-3.76828 0.17989,-8.12192 3.96037,-9.72253 3.77132,-1.58535 8.11276,0.18292 9.70727,3.95731 1.59146,3.76828 -0.17987,8.12496 -3.94206,9.72252 -3.77133,1.58536 -8.12192,-0.18293 -9.72558,-3.9573"
           style="fill:#e95d0f;fill-opacity:1;fill-rule:nonzero;stroke:none;stroke-width:1.06666672"
           id="path2951"
           inkscape:connector-curvature="0" />
        <path
           d="m 231.76309,397.79518 c -0.89328,-3.99694 1.61585,-7.96338 5.60974,-8.85362 3.99389,-0.90245 7.96338,1.6128 8.85363,5.61584 0.90549,3.99082 -1.60976,7.95423 -5.60975,8.85362 -3.99387,0.89329 -7.94507,-1.61585 -8.85362,-5.61584"
           style="fill:#e95d0f;fill-opacity:1;fill-rule:nonzero;stroke:none;stroke-width:1.06666672"
           id="path2953"
           inkscape:connector-curvature="0" />
        <path
           d="m 211.54671,172.85396 c 0,3.48475 -2.82011,6.314 -6.3201,6.314 -3.49998,0 -6.3201,-2.82925 -6.3201,-6.314 0,-3.49083 2.82012,-6.32009 6.3201,-6.32009 3.49999,0 6.3201,2.82926 6.3201,6.32009"
           style="fill:#e95d0f;fill-opacity:1;fill-rule:nonzero;stroke:none;stroke-width:1.06666672"
           id="path2955"
           inkscape:connector-curvature="0" />
        <path
           d="m 239.8027,174.6192 c -0.80183,3.39328 -4.2073,5.49693 -7.59753,4.68596 -3.39938,-0.80182 -5.50608,-4.19816 -4.70425,-7.60058 0.81402,-3.39937 4.22255,-5.49693 7.61582,-4.69207 3.39634,0.80489 5.49388,4.21341 4.68596,7.60669"
           style="fill:#e95d0f;fill-opacity:1;fill-rule:nonzero;stroke:none;stroke-width:1.06666672"
           id="path2957"
           inkscape:connector-curvature="0" />
        <path
           d="m 261.74164,180.75028 c -1.41158,3.1829 -5.14937,4.61278 -8.32923,3.18901 -3.19206,-1.42073 -4.61584,-5.16766 -3.20426,-8.34754 1.42378,-3.18291 5.16766,-4.61278 8.35363,-3.18901 3.17986,1.42378 4.61584,5.15243 3.17986,8.34754"
           style="fill:#e95d0f;fill-opacity:1;fill-rule:nonzero;stroke:none;stroke-width:1.06666672"
           id="path2959"
           inkscape:connector-curvature="0" />
        <path
           d="m 281.22023,190.28073 c -1.95731,2.88718 -5.88107,3.62804 -8.77131,1.66462 -2.88414,-1.96646 -3.62803,-5.89632 -1.65548,-8.78045 1.9573,-2.87803 5.89936,-3.62499 8.77741,-1.66158 2.88718,1.96645 3.62193,5.89937 1.64938,8.77741"
           style="fill:#e95d0f;fill-opacity:1;fill-rule:nonzero;stroke:none;stroke-width:1.06666672"
           id="path2961"
           inkscape:connector-curvature="0" />
        <path
           d="m 270.12881,404.76771 c -1.31707,-3.23779 0.23475,-6.92984 3.46035,-8.23777 3.22559,-1.32621 6.92375,0.23475 8.23777,3.47256 1.31707,3.22864 -0.23475,6.9146 -3.46645,8.24082 -3.23169,1.30487 -6.91156,-0.25306 -8.23167,-3.47561"
           style="fill:#e95d0f;fill-opacity:1;fill-rule:nonzero;stroke:none;stroke-width:1.06666672"
           id="path2963"
           inkscape:connector-curvature="0" />
        <path
           d="m 248.0923,412.67927 c -0.67377,-3.42681 1.55183,-6.75607 4.97559,-7.4268 3.42987,-0.67682 6.74998,1.55488 7.41766,4.98168 0.67378,3.42073 -1.55182,6.73474 -4.9756,7.41462 -3.42985,0.67378 -6.74387,-1.55488 -7.41765,-4.9695"
           style="fill:#e95d0f;fill-opacity:1;fill-rule:nonzero;stroke:none;stroke-width:1.06666672"
           id="path2965"
           inkscape:connector-curvature="0" />
        <path
           d="m 225.43995,416.19146 c -0.0122,-3.49389 2.80182,-6.33534 6.28352,-6.35669 3.49998,-0.0213 6.33534,2.79573 6.35363,6.28046 0.0274,3.4939 -2.79572,6.33229 -6.28961,6.35975 -3.4817,0.0182 -6.3262,-2.79574 -6.34754,-6.28352"
           style="fill:#e95d0f;fill-opacity:1;fill-rule:nonzero;stroke:none;stroke-width:1.06666672"
           id="path2967"
           inkscape:connector-curvature="0" />
        <path
           d="m 198.33943,414.79511 c 0.76525,-3.41156 4.1372,-5.56705 7.53962,-4.8079 3.40547,0.7439 5.55181,4.12499 4.79571,7.53352 -0.7439,3.40547 -4.12193,5.5518 -7.5274,4.8018 -3.40852,-0.75305 -5.55792,-4.12498 -4.80793,-7.52742"
           style="fill:#e95d0f;fill-opacity:1;fill-rule:nonzero;stroke:none;stroke-width:1.06666672"
           id="path2969"
           inkscape:connector-curvature="0" />
        <path
           d="m 178.47062,409.77989 c 1.32316,-3.23779 4.99693,-4.79876 8.23472,-3.48473 3.23475,1.31401 4.78961,5.00608 3.4817,8.22862 -1.31402,3.23779 -5.00303,4.79876 -8.23473,3.48474 -3.22865,-1.32011 -4.78961,-5.00303 -3.48169,-8.22863"
           style="fill:#e95d0f;fill-opacity:1;fill-rule:nonzero;stroke:none;stroke-width:1.06666672"
           id="path2971"
           inkscape:connector-curvature="0" />
        <path
           d="m 152.44937,397.20067 c 2.03353,-2.84145 5.99388,-3.48474 8.82009,-1.44817 2.84145,2.03354 3.4817,5.98474 1.44207,8.81705 -2.04268,2.83536 -5.98779,3.47559 -8.8201,1.44512 -2.82924,-2.03963 -3.47558,-5.98779 -1.44206,-8.814"
           style="fill:#e95d0f;fill-opacity:1;fill-rule:nonzero;stroke:none;stroke-width:1.06666672"
           id="path2973"
           inkscape:connector-curvature="0" />
        <path
           d="m 135.74212,384.33182 c 2.49999,-2.42987 6.49388,-2.39633 8.94814,0.10671 2.42987,2.49389 2.37804,6.49388 -0.10976,8.92984 -2.49389,2.44206 -6.50608,2.39633 -8.94204,-0.0976 -2.43596,-2.50304 -2.39633,-6.49387 0.10368,-8.93898"
           style="fill:#e95d0f;fill-opacity:1;fill-rule:nonzero;stroke:none;stroke-width:1.06666672"
           id="path2975"
           inkscape:connector-curvature="0" />
        <path
           d="m 119.9373,366.71908 c 2.92378,-1.90548 6.84144,-1.09145 8.74386,1.82621 1.92379,2.91158 1.11586,6.83839 -1.814,8.73472 -2.92378,1.92683 -6.83535,1.10366 -8.74998,-1.81096 -1.91157,-2.92377 -1.09754,-6.83229 1.82012,-8.74997"
           style="fill:#e95d0f;fill-opacity:1;fill-rule:nonzero;stroke:none;stroke-width:1.06666672"
           id="path2977"
           inkscape:connector-curvature="0" />
        <path
           d="m 108.69649,348.17647 c 3.2195,-1.3628 6.939,0.13109 8.28655,3.34755 1.37805,3.21035 -0.125,6.92071 -3.33535,8.2835 -3.21341,1.36279 -6.91765,-0.14025 -8.2896,-3.34145 -1.36585,-3.21341 0.14024,-6.9207 3.3384,-8.2896"
           style="fill:#e95d0f;fill-opacity:1;fill-rule:nonzero;stroke:none;stroke-width:1.06666672"
           id="path2979"
           inkscape:connector-curvature="0" />
        <path
           d="m 101.17823,328.7802 c 3.39633,-0.79267 6.80789,1.31402 7.59752,4.71035 0.80183,3.39938 -1.30791,6.8018 -4.71339,7.59143 -3.39633,0.80488 -6.795704,-1.30792 -7.591433,-4.70119 -0.79268,-3.39938 1.307922,-6.79572 4.707303,-7.60059"
           style="fill:#e95d0f;fill-opacity:1;fill-rule:nonzero;stroke:none;stroke-width:1.06666672"
           id="path2981"
           inkscape:connector-curvature="0" />
        <path
           d="m 96.534951,302.70409 c 3.499989,-0.0458 6.371929,2.74693 6.405469,6.24083 0.0518,3.48169 -2.7439,6.34753 -6.237785,6.39326 -3.49389,0.0458 -6.353636,-2.74999 -6.405465,-6.23473 -0.03048,-3.49389 2.756088,-6.35059 6.237781,-6.39936"
           style="fill:#e95d0f;fill-opacity:1;fill-rule:nonzero;stroke:none;stroke-width:1.06666672"
           id="path2983"
           inkscape:connector-curvature="0" />
        <path
           d="m 97.50446,277.24076 c 3.42377,0.68598 5.64937,4.00914 4.9634,7.4268 -0.67988,3.42378 -4.021331,5.64328 -7.439,4.96646 -3.411574,-0.67989 -5.634125,-4.00915 -4.95425,-7.42681 0.67073,-3.41767 4.006082,-5.64327 7.42985,-4.96645"
           style="fill:#e95d0f;fill-opacity:1;fill-rule:nonzero;stroke:none;stroke-width:1.06666672"
           id="path2985"
           inkscape:connector-curvature="0" />
        <path
           d="m 103.352,253.60976 c 3.21645,1.34755 4.73169,5.06095 3.38413,8.2774 -1.34755,3.2195 -5.04571,4.7317 -8.271308,3.37803 -3.216451,-1.34755 -4.731689,-5.04875 -3.384134,-8.2713 1.347556,-3.21646 5.045712,-4.72559 8.271312,-3.38413"
           style="fill:#e95d0f;fill-opacity:1;fill-rule:nonzero;stroke:none;stroke-width:1.06666672"
           id="path2987"
           inkscape:connector-curvature="0" />
        <path
           d="m 113.93123,231.33546 c 2.89632,1.97559 3.62802,5.90851 1.66462,8.78653 -1.97559,2.875 -5.90546,3.625 -8.7896,1.64939 -2.87194,-1.96645 -3.61584,-5.89631 -1.65243,-8.7835 1.97256,-2.88109 5.90852,-3.61279 8.77741,-1.65242"
           style="fill:#e95d0f;fill-opacity:1;fill-rule:nonzero;stroke:none;stroke-width:1.06666672"
           id="path2989"
           inkscape:connector-curvature="0" />
        <path
           d="m 129.27873,211.12821 c 2.41768,2.52743 2.33231,6.53047 -0.19816,8.93594 -2.51525,2.40547 -6.52133,2.32621 -8.92681,-0.19818 -2.41462,-2.52742 -2.32011,-6.52741 0.19513,-8.93288 2.52437,-2.40852 6.51827,-2.32012 8.92984,0.19512"
           style="fill:#e95d0f;fill-opacity:1;fill-rule:nonzero;stroke:none;stroke-width:1.06666672"
           id="path2991"
           inkscape:connector-curvature="0" />
        <path
           d="m 146.03781,196.28986 c 1.90244,2.92376 1.08232,6.84143 -1.83536,8.74691 -2.90852,1.90853 -6.83228,1.09145 -8.74996,-1.82621 -1.90243,-2.92378 -1.07012,-6.84449 1.83231,-8.75606 2.92377,-1.90549 6.83534,-1.08232 8.75301,1.83536"
           style="fill:#e95d0f;fill-opacity:1;fill-rule:nonzero;stroke:none;stroke-width:1.06666672"
           id="path2993"
           inkscape:connector-curvature="0" />
        <path
           d="m 165.11091,184.81428 c 1.34755,3.2256 -0.17378,6.92986 -3.39938,8.26827 -3.21035,1.3506 -6.91765,-0.16464 -8.25606,-3.39024 -1.35366,-3.22255 0.16768,-6.91765 3.38412,-8.27131 3.21951,-1.3445 6.92377,0.17377 8.27132,3.39328"
           style="fill:#e95d0f;fill-opacity:1;fill-rule:nonzero;stroke:none;stroke-width:1.06666672"
           id="path2995"
           inkscape:connector-curvature="0" />
        <path
           d="m 187.684,176.53687 c 0.69206,3.42377 -1.52439,6.76218 -4.96035,7.4451 -3.39937,0.68903 -6.75302,-1.52134 -7.42986,-4.94816 -0.68291,-3.42071 1.5305,-6.74996 4.95425,-7.44203 3.41768,-0.68903 6.74389,1.52742 7.43596,4.94509"
           style="fill:#e95d0f;fill-opacity:1;fill-rule:nonzero;stroke:none;stroke-width:1.06666672"
           id="path2997"
           inkscape:connector-curvature="0" />
        <path
           d="m 196.16871,154.62233 c 0.64634,3.26218 -1.45121,6.4268 -4.70729,7.07314 -3.24999,0.65243 -6.41156,-1.44817 -7.07314,-4.69206 -0.64634,-3.25608 1.46341,-6.4207 4.71338,-7.07924 3.25,-0.64634 6.40548,1.45122 7.06705,4.69816"
           style="fill:#e95d0f;fill-opacity:1;fill-rule:nonzero;stroke:none;stroke-width:1.06666672"
           id="path2999"
           inkscape:connector-curvature="0" />
        <path
           d="m 225.11374,152.97294 c -0.0366,3.32011 -2.7378,5.99389 -6.04571,5.9634 -3.32012,-0.0183 -5.99999,-2.7317 -5.9695,-6.03656 0.0183,-3.32926 2.7317,-5.98474 6.0457,-5.96646 3.30793,0.0244 5.98169,2.72561 5.96951,6.03962"
           style="fill:#e95d0f;fill-opacity:1;fill-rule:nonzero;stroke:none;stroke-width:1.06666672"
           id="path3001"
           inkscape:connector-curvature="0" />
        <path
           d="m 257.95202,158.38146 c -0.79573,3.21645 -4.05791,5.1829 -7.26827,4.38718 -3.21949,-0.79268 -5.1829,-4.04268 -4.38717,-7.26217 0.79572,-3.2256 4.04571,-5.18596 7.26521,-4.39329 3.21646,0.79574 5.17376,4.04877 4.39023,7.26828"
           style="fill:#e95d0f;fill-opacity:1;fill-rule:nonzero;stroke:none;stroke-width:1.06666672"
           id="path3003"
           inkscape:connector-curvature="0" />
        <path
           d="m 280.37876,166.95764 c -1.33841,3.04267 -4.87193,4.43291 -7.90545,3.10975 -3.04268,-1.33232 -4.42986,-4.87193 -3.10366,-7.90851 1.33537,-3.04267 4.85975,-4.42986 7.89937,-3.1006 3.04573,1.33231 4.42986,4.85975 3.10974,7.89936"
           style="fill:#e95d0f;fill-opacity:1;fill-rule:nonzero;stroke:none;stroke-width:1.06666672"
           id="path3005"
           inkscape:connector-curvature="0" />
        <path
           d="m 266.24772,428.03897 c -1.23475,-3.07926 0.26525,-6.58229 3.32926,-7.81095 3.0884,-1.23474 6.58229,0.2622 7.81399,3.34145 1.22561,3.08231 -0.26219,6.57315 -3.33839,7.81096 -3.07926,1.22255 -6.56095,-0.27135 -7.80486,-3.34146"
           style="fill:#e95d0f;fill-opacity:1;fill-rule:nonzero;stroke:none;stroke-width:1.06666672"
           id="path3007"
           inkscape:connector-curvature="0" />
        <path
           d="m 240.46123,434.57858 c -0.62805,-3.26524 1.4878,-6.41765 4.73779,-7.05486 3.25303,-0.63413 6.41156,1.4939 7.04876,4.73475 0.63414,3.26523 -1.48781,6.41461 -4.74085,7.04875 -3.24998,0.63415 -6.40241,-1.48171 -7.0457,-4.72864"
           style="fill:#e95d0f;fill-opacity:1;fill-rule:nonzero;stroke:none;stroke-width:1.06666672"
           id="path3009"
           inkscape:connector-curvature="0" />
        <path
           d="m 210.23878,436.00846 c 0.0701,-3.32317 2.81097,-5.9573 6.11888,-5.88108 3.32011,0.0701 5.94815,2.81401 5.86584,6.12497 -0.064,3.31707 -2.80183,5.94511 -6.10973,5.87803 -3.31706,-0.0793 -5.95121,-2.81402 -5.87499,-6.12192"
           style="fill:#e95d0f;fill-opacity:1;fill-rule:nonzero;stroke:none;stroke-width:1.06666672"
           id="path3011"
           inkscape:connector-curvature="0" />
        <path
           d="m 183.1901,431.74627 c 0.71342,-3.24693 3.90548,-5.2957 7.14937,-4.59448 3.2317,0.70425 5.29572,3.89937 4.58535,7.13716 -0.70731,3.24693 -3.89937,5.30181 -7.13716,4.59448 -3.2317,-0.71035 -5.28961,-3.90242 -4.59756,-7.13716"
           style="fill:#e95d0f;fill-opacity:1;fill-rule:nonzero;stroke:none;stroke-width:1.06666672"
           id="path3013"
           inkscape:connector-curvature="0" />
        <path
           d="m 156.52558,421.90179 c 1.35365,-3.03656 4.88718,-4.40851 7.92374,-3.0762 3.02744,1.33232 4.39938,4.88108 3.06706,7.91461 -1.34755,3.03352 -4.88107,4.41157 -7.91765,3.07926 -3.02742,-1.35061 -4.41156,-4.88718 -3.07315,-7.91767"
           style="fill:#e95d0f;fill-opacity:1;fill-rule:nonzero;stroke:none;stroke-width:1.06666672"
           id="path3015"
           inkscape:connector-curvature="0" />
        <path
           d="m 129.49519,404.67017 c 1.9878,-2.65853 5.74083,-3.20732 8.40546,-1.22258 2.65548,1.99085 3.18596,5.74694 1.19817,8.40547 -1.97866,2.65547 -5.73473,3.20425 -8.39631,1.21951 -2.64939,-1.99085 -3.19512,-5.74693 -1.20732,-8.4024"
           style="fill:#e95d0f;fill-opacity:1;fill-rule:nonzero;stroke:none;stroke-width:1.06666672"
           id="path3017"
           inkscape:connector-curvature="0" />
        <path
           d="m 113.25745,389.26169 c 2.39633,-2.31403 6.19205,-2.2561 8.49997,0.10974 2.30792,2.38414 2.25609,6.18596 -0.12195,8.49387 -2.38414,2.31098 -6.17985,2.25915 -8.49388,-0.12804 -2.30181,-2.3689 -2.25609,-6.17071 0.11586,-8.47557"
           style="fill:#e95d0f;fill-opacity:1;fill-rule:nonzero;stroke:none;stroke-width:1.06666672"
           id="path3019"
           inkscape:connector-curvature="0" />
        <path
           d="m 97.178242,367.49346 c 2.786575,-1.814 6.506068,-1.03963 8.320088,1.72866 1.81402,2.77743 1.03963,6.49388 -1.7317,8.31095 -2.78048,1.81706 -6.499974,1.03963 -8.313992,-1.74085 -1.814016,-2.76218 -1.033532,-6.48473 1.725604,-8.29876"
           style="fill:#e95d0f;fill-opacity:1;fill-rule:nonzero;stroke:none;stroke-width:1.06666672"
           id="path3021"
           inkscape:connector-curvature="0" />
        <path
           d="m 86.867306,346.58196 c 3.039622,-1.33841 6.573145,0.0335 7.917653,3.06706 1.329263,3.03048 -0.03659,6.57925 -3.076208,7.90851 -3.045721,1.33841 -6.579244,-0.0244 -7.917653,-3.07316 -1.329263,-3.03047 0.04268,-6.57314 3.076208,-7.90241"
           style="fill:#e95d0f;fill-opacity:1;fill-rule:nonzero;stroke:none;stroke-width:1.06666672"
           id="path3023"
           inkscape:connector-curvature="0" />
        <path
           d="m 79.175262,319.48755 c 3.249987,-0.70426 6.454243,1.33841 7.161557,4.57622 0.704266,3.23778 -1.341458,6.43594 -4.579251,7.1463 -3.249987,0.71341 -6.442048,-1.3384 -7.161558,-4.58534 -0.692071,-3.2317 1.347556,-6.42986 4.579252,-7.13718"
           style="fill:#e95d0f;fill-opacity:1;fill-rule:nonzero;stroke:none;stroke-width:1.06666672"
           id="path3025"
           inkscape:connector-curvature="0" />
        <path
           d="m 77.038075,290.07914 c 3.310962,-0.01 6.021318,2.63717 6.051806,5.95729 0.02743,3.31096 -2.634137,6.02131 -5.960344,6.0457 -3.314012,0.0244 -6.021318,-2.63718 -6.045708,-5.9512 -0.01524,-3.31705 2.640234,-6.02741 5.954246,-6.05179"
           style="fill:#e95d0f;fill-opacity:1;fill-rule:nonzero;stroke:none;stroke-width:1.06666672"
           id="path3027"
           inkscape:connector-curvature="0" />
        <path
           d="m 80.891718,261.4146 c 3.256085,0.65244 5.365834,3.80792 4.719494,7.05791 -0.649387,3.24999 -3.814009,5.35972 -7.063997,4.70729 -3.259134,-0.64634 -5.365834,-3.80181 -4.713397,-7.064 0.652437,-3.23778 3.81401,-5.34753 7.0579,-4.7012"
           style="fill:#e95d0f;fill-opacity:1;fill-rule:nonzero;stroke:none;stroke-width:1.06666672"
           id="path3029"
           inkscape:connector-curvature="0" />
        <path
           d="m 89.818513,235.57934 c 3.070111,1.26828 4.536569,4.77132 3.274379,7.82619 -1.262191,3.06706 -4.768274,4.53656 -7.829239,3.27132 -3.076208,-1.26219 -4.542665,-4.76522 -3.286574,-7.83839 1.280484,-3.05791 4.774373,-4.51827 7.841434,-3.25912"
           style="fill:#e95d0f;fill-opacity:1;fill-rule:nonzero;stroke:none;stroke-width:1.06666672"
           id="path3031"
           inkscape:connector-curvature="0" />
        <path
           d="m 103.72395,211.6648 c 2.75609,1.84754 3.52437,5.5579 1.69207,8.32923 -1.82927,2.75608 -5.564008,3.51523 -8.323143,1.67682 -2.768283,-1.83231 -3.524378,-5.54876 -1.685969,-8.32314 1.829259,-2.75913 5.557902,-3.50304 8.317042,-1.68291"
           style="fill:#e95d0f;fill-opacity:1;fill-rule:nonzero;stroke:none;stroke-width:1.06666672"
           id="path3033"
           inkscape:connector-curvature="0" />
        <path
           d="m 124.77874,188.40268 c 2.29877,2.40854 2.21037,6.19205 -0.17987,8.48168 -2.39328,2.29573 -6.1951,2.20731 -8.48473,-0.18902 -2.29267,-2.39633 -2.21644,-6.18595 0.19513,-8.49082 2.39633,-2.28049 6.18595,-2.20122 8.46947,0.19816"
           style="fill:#e95d0f;fill-opacity:1;fill-rule:nonzero;stroke:none;stroke-width:1.06666672"
           id="path3035"
           inkscape:connector-curvature="0" />
        <path
           d="m 145.00428,173.49115 c 1.82317,2.77439 1.07927,6.48169 -1.67986,8.32009 -2.76829,1.83232 -6.49998,1.07928 -8.3262,-1.68596 -1.82926,-2.76829 -1.07927,-6.48474 1.67987,-8.3201 2.78048,-1.82621 6.48779,-1.07316 8.32619,1.68597"
           style="fill:#e95d0f;fill-opacity:1;fill-rule:nonzero;stroke:none;stroke-width:1.06666672"
           id="path3037"
           inkscape:connector-curvature="0" />
        <path
           d="m 169.52249,161.62839 c 1.27437,3.06707 -0.17379,6.5701 -3.23781,7.85059 -3.05791,1.26218 -6.57314,-0.19207 -7.84143,-3.2439 -1.26828,-3.0762 0.16768,-6.58229 3.24999,-7.85362 3.05792,-1.2622 6.56705,0.18901 7.82925,3.24693"
           style="fill:#e95d0f;fill-opacity:1;fill-rule:nonzero;stroke:none;stroke-width:1.06666672"
           id="path3039"
           inkscape:connector-curvature="0" />
        <path
           d="m 206.60466,137.41812 c 0,2.12499 -1.71951,3.85059 -3.84754,3.85059 -2.12805,0 -3.85061,-1.7256 -3.85061,-3.85059 0,-2.125 1.72256,-3.8445 3.85061,-3.8445 2.12803,0 3.84754,1.7195 3.84754,3.8445"
           style="fill:#e95d0f;fill-opacity:1;fill-rule:nonzero;stroke:none;stroke-width:1.06666672"
           id="path3041"
           inkscape:connector-curvature="0" />
        <path
           d="m 221.21436,120.39075 c 0,1.70121 -1.38414,3.07315 -3.07622,3.07315 -1.70426,0 -3.0823,-1.37194 -3.0823,-3.07315 0,-1.70121 1.37804,-3.07316 3.0823,-3.07316 1.69208,0 3.07622,1.37195 3.07622,3.07316"
           style="fill:#e95d0f;fill-opacity:1;fill-rule:nonzero;stroke:none;stroke-width:1.06666672"
           id="path3043"
           inkscape:connector-curvature="0" />
        <path
           d="m 262.31786,125.92426 c -0.40244,1.64938 -2.05182,2.66159 -3.71645,2.26523 -1.64939,-0.40547 -2.66767,-2.07011 -2.25304,-3.72254 0.39329,-1.64633 2.06706,-2.65547 3.7195,-2.26523 1.6372,0.40548 2.65548,2.07316 2.24999,3.72254"
           style="fill:#e95d0f;fill-opacity:1;fill-rule:nonzero;stroke:none;stroke-width:1.06666672"
           id="path3045"
           inkscape:connector-curvature="0" />
        <path
           d="m 293.9275,137.45775 c -0.70732,1.54573 -2.54573,2.22866 -4.08536,1.5061 -1.55181,-0.71342 -2.21644,-2.53659 -1.49999,-4.0884 0.71036,-1.53658 2.52744,-2.21646 4.07621,-1.50304 1.53962,0.71341 2.2256,2.54267 1.50914,4.08534"
           style="fill:#e95d0f;fill-opacity:1;fill-rule:nonzero;stroke:none;stroke-width:1.06666672"
           id="path3047"
           inkscape:connector-curvature="0" />
        <path
           d="m 279.61047,457.70959 c -0.62195,-1.58232 0.17379,-3.3689 1.74391,-3.9817 1.58839,-0.6128 3.37192,0.16464 3.98168,1.75 0.62196,1.57926 -0.16768,3.36889 -1.74389,3.98169 -1.57316,0.61891 -3.37194,-0.16464 -3.9817,-1.74999"
           style="fill:#e95d0f;fill-opacity:1;fill-rule:nonzero;stroke:none;stroke-width:1.06666672"
           id="path3049"
           inkscape:connector-curvature="0" />
        <path
           d="m 247.80268,466.26748 c -0.31403,-1.67682 0.79572,-3.28047 2.4512,-3.59145 1.67987,-0.30487 3.28962,0.79574 3.5884,2.46647 0.31403,1.67682 -0.78048,3.28047 -2.46035,3.58839 -1.66768,0.31098 -3.27133,-0.80182 -3.57925,-2.46341"
           style="fill:#e95d0f;fill-opacity:1;fill-rule:nonzero;stroke:none;stroke-width:1.06666672"
           id="path3051"
           inkscape:connector-curvature="0" />
        <path
           d="m 211.61988,468.5754 c 0.0488,-1.70425 1.46037,-3.04877 3.15243,-3.00304 1.70731,0.0518 3.04572,1.46646 2.99389,3.15853 -0.0305,1.69817 -1.44207,3.04572 -3.14633,2.99694 -1.69512,-0.0427 -3.03962,-1.46036 -2.99999,-3.15243"
           style="fill:#e95d0f;fill-opacity:1;fill-rule:nonzero;stroke:none;stroke-width:1.06666672"
           id="path3053"
           inkscape:connector-curvature="0" />
        <path
           d="m 175.22977,463.20957 c 0.40854,-1.65243 2.07621,-2.67072 3.71646,-2.26828 1.64938,0.40548 2.66157,2.07011 2.26828,3.7134 -0.40245,1.64633 -2.06401,2.67072 -3.71035,2.27133 -1.65244,-0.3994 -2.67378,-2.07622 -2.27439,-3.71645"
           style="fill:#e95d0f;fill-opacity:1;fill-rule:nonzero;stroke:none;stroke-width:1.06666672"
           id="path3055"
           inkscape:connector-curvature="0" />
        <path
           d="m 143.05002,451.43218 c 0.71951,-1.54268 2.54572,-2.20732 4.0762,-1.49085 1.54573,0.71646 2.21951,2.53962 1.50304,4.0823 -0.7134,1.54878 -2.53353,2.21951 -4.08535,1.49695 -1.53962,-0.71342 -2.2073,-2.54268 -1.49389,-4.0884"
           style="fill:#e95d0f;fill-opacity:1;fill-rule:nonzero;stroke:none;stroke-width:1.06666672"
           id="path3057"
           inkscape:connector-curvature="0" />
        <path
           d="m 112.00135,432.21274 c 1.0183,-1.35976 2.94206,-1.63414 4.30792,-0.6128 1.3445,1.03352 1.61585,2.95426 0.6006,4.31095 -1.00609,1.36281 -2.94815,1.64025 -4.30181,0.60976 -1.35061,-1.02439 -1.63414,-2.95122 -0.60671,-4.30791"
           style="fill:#e95d0f;fill-opacity:1;fill-rule:nonzero;stroke:none;stroke-width:1.06666672"
           id="path3059"
           inkscape:connector-curvature="0" />
        <path
           d="m 89.367296,411.21281 c 1.243898,-1.15853 3.192061,-1.08535 4.347545,0.16464 1.155483,1.25305 1.08841,3.1951 -0.158536,4.34145 -1.246947,1.16158 -3.19511,1.1006 -4.347546,-0.15549 -1.16158,-1.24389 -1.085361,-3.18902 0.158537,-4.3506"
           style="fill:#e95d0f;fill-opacity:1;fill-rule:nonzero;stroke:none;stroke-width:1.06666672"
           id="path3061"
           inkscape:connector-curvature="0" />
        <path
           d="m 71.217974,387.21595 c 1.423775,-0.92682 3.338403,-0.51218 4.249984,0.91464 0.923777,1.42377 0.521339,3.32316 -0.902435,4.24387 -1.435971,0.92683 -3.329255,0.52441 -4.253032,-0.89938 -0.920729,-1.42986 -0.524389,-3.33535 0.905483,-4.25913"
           style="fill:#e95d0f;fill-opacity:1;fill-rule:nonzero;stroke:none;stroke-width:1.06666672"
           id="path3063"
           inkscape:connector-curvature="0" />
        <path
           d="m 58.644851,363.26788 c 1.557921,-0.69512 3.378036,-0.006 4.06401,1.54572 0.69207,1.56097 0,3.38414 -1.551824,4.06401 -1.554872,0.69817 -3.378036,0.006 -4.076204,-1.54878 -0.679875,-1.54572 0.01219,-3.36888 1.564018,-4.06095"
           style="fill:#e95d0f;fill-opacity:1;fill-rule:nonzero;stroke:none;stroke-width:1.06666672"
           id="path3065"
           inkscape:connector-curvature="0" />
        <path
           d="m 48.617451,332.1247 c 1.649383,-0.3872 3.314011,0.63414 3.707302,2.28047 0.378048,1.66768 -0.637192,3.32012 -2.289626,3.70731 -1.661578,0.39634 -3.320108,-0.62804 -3.701205,-2.29267 -0.390242,-1.64634 0.631096,-3.29878 2.283529,-3.69511"
           style="fill:#e95d0f;fill-opacity:1;fill-rule:nonzero;stroke:none;stroke-width:1.06666672"
           id="path3067"
           inkscape:connector-curvature="0" />
        <path
           d="m 44.513808,293.7285 c 1.70731,-0.0274 3.091452,1.33232 3.109744,3.03963 0.0061,1.70121 -1.353654,3.09145 -3.045721,3.1006 -1.704262,0.0213 -3.0945,-1.33232 -3.109744,-3.03963 -0.02439,-1.70426 1.353654,-3.09145 3.045721,-3.1006"
           style="fill:#e95d0f;fill-opacity:1;fill-rule:nonzero;stroke:none;stroke-width:1.06666672"
           id="path3069"
           inkscape:connector-curvature="0" />
        <path
           d="m 47.715014,261.29875 c 1.667677,0.29268 2.786575,1.89328 2.481699,3.56401 -0.301828,1.67378 -1.899383,2.78962 -3.560963,2.48779 -1.685969,-0.29572 -2.792672,-1.89632 -2.487795,-3.57315 0.295731,-1.67072 1.893286,-2.78352 3.567059,-2.47865"
           style="fill:#e95d0f;fill-opacity:1;fill-rule:nonzero;stroke:none;stroke-width:1.06666672"
           id="path3071"
           inkscape:connector-curvature="0" />
        <path
           d="m 58.343023,226.53973 c 1.573166,0.63415 2.323162,2.42683 1.692067,3.99999 -0.646339,1.57622 -2.442064,2.33535 -4.01218,1.68902 -1.576213,-0.64024 -2.332308,-2.43292 -1.692067,-4.00608 0.634144,-1.56708 2.435967,-2.33535 4.01218,-1.68293"
           style="fill:#e95d0f;fill-opacity:1;fill-rule:nonzero;stroke:none;stroke-width:1.06666672"
           id="path3073"
           inkscape:connector-curvature="0" />
        <path
           d="m 75.617348,195.20754 c 1.420727,0.94817 1.792677,2.8628 0.826216,4.26523 -0.948167,1.41767 -2.859745,1.79572 -4.253033,0.82926 -1.414628,-0.94511 -1.798773,-2.84756 -0.844509,-4.26218 0.954266,-1.40548 2.865844,-1.77744 4.271326,-0.83231"
           style="fill:#e95d0f;fill-opacity:1;fill-rule:nonzero;stroke:none;stroke-width:1.06666672"
           id="path3075"
           inkscape:connector-curvature="0" />
        <path
           d="m 98.970918,168.03082 c 1.192072,1.22255 1.173772,3.15851 -0.04878,4.34449 -1.231704,1.18901 -3.179866,1.15852 -4.347545,-0.0579 -1.198166,-1.2195 -1.167678,-3.15852 0.05183,-4.34753 1.216458,-1.18598 3.158524,-1.15549 4.344496,0.061"
           style="fill:#e95d0f;fill-opacity:1;fill-rule:nonzero;stroke:none;stroke-width:1.06666672"
           id="path3077"
           inkscape:connector-curvature="0" />
        <path
           d="m 125.82448,147.18942 c 0.93292,1.42379 0.52438,3.32926 -0.89329,4.25608 -1.43598,0.92378 -3.34145,0.52135 -4.25,-0.89939 -0.94205,-1.42376 -0.53352,-3.3323 0.89026,-4.25912 1.42377,-0.93292 3.32924,-0.5183 4.25303,0.90243"
           style="fill:#e95d0f;fill-opacity:1;fill-rule:nonzero;stroke:none;stroke-width:1.06666672"
           id="path3079"
           inkscape:connector-curvature="0" />
        <path
           d="m 157.40973,131.50351 c 0.62804,1.58535 -0.15244,3.36279 -1.73476,3.98779 -1.58536,0.6189 -3.36584,-0.15853 -3.9756,-1.74085 -0.63413,-1.58536 0.15244,-3.36279 1.72865,-3.99083 1.57927,-0.61891 3.36281,0.16463 3.98171,1.74389"
           style="fill:#e95d0f;fill-opacity:1;fill-rule:nonzero;stroke:none;stroke-width:1.06666672"
           id="path3081"
           inkscape:connector-curvature="0" />
        <path
           d="m 186.53156,123.36635 c 0.34451,1.66768 -0.7378,3.28657 -2.39938,3.62499 -1.67073,0.33231 -3.29572,-0.74085 -3.62193,-2.40243 -0.35061,-1.66768 0.7317,-3.28964 2.40547,-3.62805 1.66158,-0.33841 3.27438,0.73782 3.61584,2.40549"
           style="fill:#e95d0f;fill-opacity:1;fill-rule:nonzero;stroke:none;stroke-width:1.06666672"
           id="path3083"
           inkscape:connector-curvature="0" />
        <path
           d="m 242.01916,138.68946 c -0.47257,2.07315 -2.53658,3.3689 -4.60974,2.89023 -2.06402,-0.4756 -3.35975,-2.53658 -2.88414,-4.60669 0.46951,-2.06707 2.53354,-3.35669 4.60365,-2.88718 2.07011,0.47256 3.36583,2.53657 2.89023,4.60364"
           style="fill:#e95d0f;fill-opacity:1;fill-rule:nonzero;stroke:none;stroke-width:1.06666672"
           id="path3085"
           inkscape:connector-curvature="0" />
        <path
           d="m 273.71111,146.8754 c -0.89634,1.92378 -3.17987,2.76523 -5.10364,1.875 -1.92987,-0.8933 -2.77438,-3.17986 -1.88414,-5.10365 0.89634,-1.93597 3.18596,-2.77133 5.10974,-1.87804 1.93596,0.8933 2.75609,3.17988 1.87804,5.10669"
           style="fill:#e95d0f;fill-opacity:1;fill-rule:nonzero;stroke:none;stroke-width:1.06666672"
           id="path3087"
           inkscape:connector-curvature="0" />
        <path
           id="path3135"
           style="fill:#e95d0f;fill-opacity:1;fill-rule:nonzero;stroke:none;stroke-width:1.06666672"
           d="m 289.55867,435.28898 c -0.81098,-1.95731 0.12195,-4.20731 2.10975,-5.01218 1.94512,-0.80791 4.1951,0.13415 5.00303,2.09756 0.79877,1.96036 -0.13415,4.20729 -2.09146,5.02132 -1.96645,0.80182 -4.21645,-0.14025 -5.02132,-2.1067"
           inkscape:connector-curvature="0" />
        <path
           id="path3137"
           style="fill:#e95d0f;fill-opacity:1;fill-rule:nonzero;stroke:none;stroke-width:1.06666672"
           d="m 261.08622,446.32553 c -0.42683,-2.08841 0.92987,-4.11279 3.01523,-4.53048 2.0823,-0.40853 4.10974,0.94817 4.51827,3.03353 0.42378,2.07926 -0.93293,4.11279 -3.01218,4.51523 -2.09145,0.41463 -4.12194,-0.94207 -4.52132,-3.01828"
           inkscape:connector-curvature="0" />
        <path
           id="path3139"
           style="fill:#e95d0f;fill-opacity:1;fill-rule:nonzero;stroke:none;stroke-width:1.06666672"
           d="m 228.44,451.82855 c 0.0213,-2.12499 1.76524,-3.8201 3.89328,-3.79267 2.12803,0.0335 3.8262,1.78353 3.78352,3.90547 -0.0213,2.125 -1.77134,3.82011 -3.89328,3.78658 -2.12804,-0.0335 -3.82011,-1.77743 -3.78352,-3.89938"
           inkscape:connector-curvature="0" />
        <path
           id="path3141"
           style="fill:#e95d0f;fill-opacity:1;fill-rule:nonzero;stroke:none;stroke-width:1.06666672"
           d="m 194.03159,450.19136 c 0.4939,-2.06401 2.55791,-3.3445 4.62499,-2.85364 2.05792,0.49085 3.3445,2.56706 2.8445,4.63108 -0.48781,2.06706 -2.55182,3.34449 -4.63414,2.8445 -2.05792,-0.48781 -3.32315,-2.55792 -2.83535,-4.62194"
           inkscape:connector-curvature="0" />
        <path
           id="path3143"
           style="fill:#e95d0f;fill-opacity:1;fill-rule:nonzero;stroke:none;stroke-width:1.06666672"
           d="m 166.43108,443.21883 c 0.85366,-1.94207 3.13414,-2.82621 5.08535,-1.97865 1.92987,0.86585 2.81401,3.13108 1.96036,5.07619 -0.8567,1.94207 -3.12194,2.82926 -5.0701,1.96951 -1.94207,-0.85366 -2.82011,-3.12803 -1.97561,-5.06705"
           inkscape:connector-curvature="0" />
        <path
           id="path3145"
           style="fill:#e95d0f;fill-opacity:1;fill-rule:nonzero;stroke:none;stroke-width:1.06666672"
           d="m 135.35499,428.2951 c 1.25913,-1.7073 3.66767,-2.07926 5.37497,-0.82011 1.71646,1.25609 2.07622,3.66462 0.80793,5.36888 -1.24391,1.71645 -3.64938,2.08841 -5.35974,0.83231 -1.7134,-1.25304 -2.07926,-3.66767 -0.82316,-5.38108"
           inkscape:connector-curvature="0" />
        <path
           id="path3147"
           style="fill:#e95d0f;fill-opacity:1;fill-rule:nonzero;stroke:none;stroke-width:1.06666672"
           d="m 111.38556,409.95676 c 1.57012,-1.43292 3.99999,-1.33841 5.44206,0.22256 1.43596,1.55183 1.33841,3.99694 -0.22561,5.4329 -1.55792,1.43902 -3.98779,1.33841 -5.42986,-0.2134 -1.44817,-1.56097 -1.34451,-3.99694 0.21341,-5.44206"
           inkscape:connector-curvature="0" />
        <path
           id="path3149"
           style="fill:#e95d0f;fill-opacity:1;fill-rule:nonzero;stroke:none;stroke-width:1.06666672"
           d="m 93.059411,389.68244 c 1.783531,-1.14633 4.149375,-0.63414 5.317054,1.15244 1.146337,1.78353 0.628046,4.17072 -1.173777,5.3079 -1.774383,1.14939 -4.149374,0.6433 -5.301809,-1.14633 -1.155483,-1.79267 -0.634144,-4.16767 1.158532,-5.31401"
           inkscape:connector-curvature="0" />
        <path
           id="path3151"
           style="fill:#e95d0f;fill-opacity:1;fill-rule:nonzero;stroke:none;stroke-width:1.06666672"
           d="m 78.827758,367.17948 c 1.963407,-0.83231 4.213398,0.0763 5.05181,2.03658 0.835363,1.94816 -0.07622,4.21035 -2.033529,5.03047 -1.954261,0.82622 -4.204252,-0.0732 -5.048761,-2.01828 -0.823168,-1.95732 0.08231,-4.2195 2.03048,-5.04877"
           inkscape:connector-curvature="0" />
        <path
           id="path3153"
           style="fill:#e95d0f;fill-opacity:1;fill-rule:nonzero;stroke:none;stroke-width:1.06666672"
           d="m 67.940604,340.4997 c 2.079261,-0.4695 4.124984,0.83841 4.597543,2.91463 0.469511,2.07011 -0.847557,4.12499 -2.923768,4.58535 -2.070114,0.46341 -4.115839,-0.84146 -4.588398,-2.92073 -0.457315,-2.06401 0.850607,-4.12193 2.914623,-4.57925"
           inkscape:connector-curvature="0" />
        <path
           id="path3155"
           style="fill:#e95d0f;fill-opacity:1;fill-rule:nonzero;stroke:none;stroke-width:1.06666672"
           d="m 61.568677,306.70715 c 2.128041,-0.006 3.847546,1.71646 3.847546,3.84755 0,2.11584 -1.719505,3.84449 -3.847546,3.84145 -2.109748,0.003 -3.838401,-1.71646 -3.847546,-3.8384 0,-2.12499 1.7317,-3.8506 3.847546,-3.8506"
           inkscape:connector-curvature="0" />
        <path
           id="path3157"
           style="fill:#e95d0f;fill-opacity:1;fill-rule:nonzero;stroke:none;stroke-width:1.06666672"
           d="m 62.093066,276.88714 c 2.085357,0.39025 3.451206,2.40548 3.054866,4.49999 -0.399389,2.0823 -2.423772,3.45425 -4.496935,3.04876 -2.082309,-0.39634 -3.454255,-2.40853 -3.057914,-4.49388 0.399387,-2.08841 2.411575,-3.45731 4.499983,-3.05487"
           inkscape:connector-curvature="0" />
        <path
           id="path3159"
           style="fill:#e95d0f;fill-opacity:1;fill-rule:nonzero;stroke:none;stroke-width:1.06666672"
           d="m 68.74243,246.04579 c 1.969505,0.80488 2.911574,3.04877 2.097553,5.01218 -0.801826,1.96646 -3.051818,2.90853 -5.021322,2.09755 -1.960358,-0.80182 -2.89633,-3.04877 -2.094504,-5.00912 0.807923,-1.96341 3.057914,-2.90548 5.018273,-2.10061"
           inkscape:connector-curvature="0" />
        <path
           id="path3161"
           style="fill:#e95d0f;fill-opacity:1;fill-rule:nonzero;stroke:none;stroke-width:1.06666672"
           d="m 81.361285,217.24407 c 1.756091,1.17683 2.237797,3.57012 1.064021,5.3323 -1.179875,1.76524 -3.573158,2.2378 -5.335347,1.06097 -1.768285,-1.18597 -2.249991,-3.57316 -1.06402,-5.33535 1.179874,-1.75913 3.570109,-2.23779 5.335346,-1.05792"
           inkscape:connector-curvature="0" />
        <path
           id="path3163"
           style="fill:#e95d0f;fill-opacity:1;fill-rule:nonzero;stroke:none;stroke-width:1.06666672"
           d="m 100.98011,189.76551 c 1.47866,1.52135 1.42378,3.95731 -0.10366,5.44206 -1.533526,1.46951 -3.957298,1.42378 -5.435951,-0.11585 -1.469507,-1.52134 -1.429873,-3.95731 0.100608,-5.42681 1.521336,-1.46951 3.9634,-1.42683 5.439003,0.10058"
           inkscape:connector-curvature="0" />
        <path
           id="path3165"
           style="fill:#e95d0f;fill-opacity:1;fill-rule:nonzero;stroke:none;stroke-width:1.06666672"
           d="m 123.92515,168.6345 c 1.14634,1.78353 0.62194,4.16767 -1.17378,5.30486 -1.79572,1.14634 -4.17376,0.61585 -5.29571,-1.16768 -1.14634,-1.78963 -0.62804,-4.16767 1.15549,-5.31095 1.79267,-1.14634 4.16767,-0.6128 5.314,1.17377"
           inkscape:connector-curvature="0" />
        <path
           id="path3167"
           style="fill:#e95d0f;fill-opacity:1;fill-rule:nonzero;stroke:none;stroke-width:1.06666672"
           d="m 148.97994,153.21382 c 0.80182,1.96647 -0.16464,4.20121 -2.13415,4.99694 -1.95731,0.79573 -4.20729,-0.17378 -4.99388,-2.14328 -0.78963,-1.96342 0.16463,-4.20426 2.14024,-4.99694 1.96035,-0.78353 4.20424,0.17378 4.98779,2.14328"
           inkscape:connector-curvature="0" />
        <path
           id="path3169"
           style="fill:#e95d0f;fill-opacity:1;fill-rule:nonzero;stroke:none;stroke-width:1.06666672"
           d="m 177.9158,142.32363 c 0.39634,2.0884 -0.98171,4.09449 -3.06706,4.48778 -2.08841,0.38719 -4.0945,-0.98779 -4.47865,-3.0823 -0.39938,-2.07621 0.96646,-4.08841 3.05792,-4.47865 2.08841,-0.38719 4.10974,0.99085 4.48779,3.07317"
           inkscape:connector-curvature="0" />
      </g>
    </g>
    <path
       id="text3171"
       d="m 242.75379,306.08371 14.02285,1.63704 c -2.21155,7.73448 -6.30783,13.73698 -12.28882,18.00753 -5.98113,4.27058 -13.62081,6.40584 -22.91905,6.40584 -11.71085,0 -20.99657,-3.40458 -27.85718,-10.21374 -6.86064,-6.80916 -10.29096,-16.3586 -10.29096,-28.64838 0,-12.7167 3.46801,-22.58645 10.40404,-29.60919 6.93601,-7.02266 15.93272,-10.534 26.99019,-10.53405 10.70556,5e-5 19.45094,3.44024 26.23628,10.32049 6.78515,6.88044 10.17778,16.56036 10.17784,29.03985 -6e-5,0.75923 -0.0252,1.89804 -0.0754,3.41643 h -59.7101 c 0.50258,8.3039 2.9905,14.66229 7.46375,19.07517 4.47322,4.41292 10.05217,6.6194 16.73694,6.61936 4.97579,4e-5 9.22284,-1.2337 12.74117,-3.70113 3.51821,-2.46742 6.3077,-6.40584 8.36845,-11.81522 z m -44.5564,-20.71223 h 44.70721 c -0.6032,-6.35833 -2.31209,-11.12714 -5.12663,-14.30638 -4.3225,-4.93482 -9.92663,-7.40224 -16.81234,-7.40229 -6.23239,5e-5 -11.4721,1.96924 -15.71911,5.9076 -4.24712,3.93844 -6.59679,9.20548 -7.04913,15.80107 z m 76.36982,45.05442 v -75.58893 h 12.21343 v 11.45933 c 3.11617,-5.36184 5.99359,-8.89694 8.63234,-10.60521 2.63867,-1.70816 5.54125,-2.56228 8.70771,-2.56233 4.57372,5e-5 9.22287,1.37614 13.94745,4.1282 l -4.67428,11.88638 c -3.31726,-1.8505 -6.6345,-2.7758 -9.95167,-2.77586 -2.96546,6e-5 -5.62929,0.8423 -7.99152,2.52676 -2.3623,1.68454 -4.04604,4.0215 -5.05126,7.01083 -1.50784,4.55531 -2.26175,9.53762 -2.26171,14.94696 v 39.57387 z"
       style="font-size:11.48947048px;stroke:#ffffff;stroke-width:2.89374089;stroke-miterlimit:4;stroke-opacity:1;fill:#ffffff"
       inkscape:connector-curvature="0" />
    <path
       id="text3175"
       d="m 379.40324,305.00706 13.46428,1.70936 c -1.47076,9.067 -5.23619,16.16452 -11.29631,21.29256 -6.06027,5.12804 -13.50238,7.69208 -22.32637,7.69208 -11.05547,0 -19.9429,-3.53019 -26.66234,-10.59055 -6.71948,-7.06036 -10.07921,-17.18021 -10.07921,-30.35956 0,-8.52194 1.44531,-15.97865 4.33596,-22.37019 2.89063,-6.39143 7.28998,-11.18503 13.19806,-14.38085 5.90802,-3.19566 12.33586,-4.79354 19.28359,-4.7936 8.77329,6e-5 15.94918,2.16774 21.52765,6.50295 5.57836,4.33537 9.1536,10.49153 10.72579,18.46841 l -13.31216,2.00663 c -1.26787,-5.30138 -3.51193,-9.28987 -6.73212,-11.96543 -3.22033,-2.67545 -7.11257,-4.0132 -11.67666,-4.01326 -6.89702,6e-5 -12.50079,2.41545 -16.81137,7.24614 -4.31062,4.83085 -6.46591,12.47336 -6.46591,22.92761 0,10.60297 2.07923,18.30742 6.23771,23.11339 4.15844,4.80601 9.58473,7.20901 16.27885,7.20901 5.37552,0 9.86362,-1.61026 13.46431,-4.83079 3.60055,-3.2205 5.88264,-8.17511 6.84625,-14.86391 z"
       style="font-size:11.79311562px;stroke:#ffffff;stroke-width:2.9703691;stroke-miterlimit:4;stroke-opacity:1;fill:#ffffff"
       inkscape:connector-curvature="0" />
  </g>
</svg>
